M48
METRIC,TZ
T1C0.700
T2C1.016
T3C1.524
%
G90
G05
T1
X9830Y11482
X9830Y4878
X12624Y9704
X19990Y11228
X20930Y15880
X23170Y5090
X29870Y2360
X32190Y17760
X36390Y8560
X38710Y5870
X39050Y24770
X40080Y10020
X42940Y19700
X46560Y10900
X48580Y24500
X48600Y16990
X48650Y5070
T2
X25850Y21180
X28390Y21180
X30930Y21180
X33470Y21180
X36010Y21180
T3
X4720Y21630
X4720Y16550
X4720Y11470
X4720Y6390
X53820Y23870
X53820Y18790
X53820Y13710
X53820Y8630
X53820Y3550
T0
M30
