G04 #@! TF.FileFunction,Legend,Top*
%FSLAX46Y46*%
G04 Gerber Fmt 4.6, Leading zero omitted, Abs format (unit mm)*
G04 Created by KiCad (PCBNEW 4.0.6) date Thursday, 09 June 2022 'PMt' 12:22:57*
%MOMM*%
%LPD*%
G01*
G04 APERTURE LIST*
%ADD10C,0.100000*%
%ADD11C,0.150000*%
%ADD12C,0.120000*%
G04 APERTURE END LIST*
D10*
D11*
X22520000Y20860000D02*
X20970000Y20860000D01*
X20970000Y20860000D02*
X20970000Y23960000D01*
X20970000Y23960000D02*
X22520000Y23960000D01*
X23790000Y23680000D02*
X33950000Y23680000D01*
X33950000Y23680000D02*
X33950000Y21140000D01*
X33950000Y21140000D02*
X23790000Y21140000D01*
X23790000Y23680000D02*
X23790000Y21140000D01*
X8695000Y8710000D02*
X8695000Y6710000D01*
X10745000Y6710000D02*
X10745000Y8710000D01*
X10520000Y12960000D02*
X11520000Y12960000D01*
X11520000Y14660000D02*
X10520000Y14660000D01*
X20330000Y12410000D02*
X20330000Y11410000D01*
X22030000Y11410000D02*
X22030000Y12410000D01*
X22670000Y12390000D02*
X22670000Y11390000D01*
X24370000Y11390000D02*
X24370000Y12390000D01*
X49570000Y5610000D02*
X49570000Y6610000D01*
X47870000Y6610000D02*
X47870000Y5610000D01*
X16995000Y15235000D02*
X16995000Y15285000D01*
X12845000Y15235000D02*
X12845000Y15380000D01*
X12845000Y20385000D02*
X12845000Y20240000D01*
X16995000Y20385000D02*
X16995000Y20240000D01*
X16995000Y15235000D02*
X12845000Y15235000D01*
X16995000Y20385000D02*
X12845000Y20385000D01*
X16995000Y15285000D02*
X18395000Y15285000D01*
X8530000Y24170000D02*
X910000Y24170000D01*
X910000Y3850000D02*
X8530000Y3850000D01*
X2180000Y3850000D02*
X2180000Y24170000D01*
X8530000Y24170000D02*
X8530000Y3850000D01*
X910000Y24170000D02*
X910000Y3850000D01*
X45990000Y10145000D02*
X47190000Y10145000D01*
X47190000Y8395000D02*
X45990000Y8395000D01*
X45445000Y5210000D02*
X45445000Y6410000D01*
X47195000Y6410000D02*
X47195000Y5210000D01*
X44895000Y6360000D02*
X44895000Y5160000D01*
X43145000Y5160000D02*
X43145000Y6360000D01*
X39405000Y11160000D02*
X39405000Y9960000D01*
X37655000Y9960000D02*
X37655000Y11160000D01*
X43935000Y11170000D02*
X43935000Y9970000D01*
X42185000Y9970000D02*
X42185000Y11170000D01*
X46595000Y14810000D02*
X46595000Y13610000D01*
X44845000Y13610000D02*
X44845000Y14810000D01*
X38195000Y18610000D02*
X38195000Y17410000D01*
X36445000Y17410000D02*
X36445000Y18610000D01*
D12*
X17730000Y4200000D02*
X17730000Y5460000D01*
X17730000Y11020000D02*
X17730000Y9760000D01*
X13970000Y4200000D02*
X17730000Y4200000D01*
X11720000Y11020000D02*
X17730000Y11020000D01*
D11*
X44395000Y18185000D02*
X44345000Y18185000D01*
X44395000Y14035000D02*
X44250000Y14035000D01*
X39245000Y14035000D02*
X39390000Y14035000D01*
X39245000Y18185000D02*
X39390000Y18185000D01*
X44395000Y18185000D02*
X44395000Y14035000D01*
X39245000Y18185000D02*
X39245000Y14035000D01*
X44345000Y18185000D02*
X44345000Y19585000D01*
X25270000Y12435000D02*
X25295000Y12435000D01*
X25270000Y16585000D02*
X25385000Y16585000D01*
X34170000Y16585000D02*
X34055000Y16585000D01*
X34170000Y12435000D02*
X34055000Y12435000D01*
X25270000Y12435000D02*
X25270000Y16585000D01*
X34170000Y12435000D02*
X34170000Y16585000D01*
X25295000Y12435000D02*
X25295000Y11060000D01*
X57630000Y1010000D02*
X57630000Y26410000D01*
X56360000Y1010000D02*
X56360000Y26410000D01*
X50010000Y1010000D02*
X50010000Y26410000D01*
X50010000Y26410000D02*
X57630000Y26410000D01*
X50010000Y1010000D02*
X57630000Y1010000D01*
X16720000Y11585000D02*
X18720000Y11585000D01*
X18720000Y13635000D02*
X16720000Y13635000D01*
X47170000Y14810000D02*
X47170000Y13810000D01*
X48870000Y13810000D02*
X48870000Y14810000D01*
X47020000Y20475000D02*
X45820000Y20475000D01*
X45820000Y22225000D02*
X47020000Y22225000D01*
X43750000Y20475000D02*
X42550000Y20475000D01*
X42550000Y22225000D02*
X43750000Y22225000D01*
X40510000Y20475000D02*
X39310000Y20475000D01*
X39310000Y22225000D02*
X40510000Y22225000D01*
X41725000Y11150000D02*
X41725000Y9950000D01*
X39975000Y9950000D02*
X39975000Y11150000D01*
X43180000Y22790000D02*
X44180000Y22790000D01*
X44180000Y24490000D02*
X43180000Y24490000D01*
X17872381Y20719524D02*
X16872381Y20719524D01*
X16872381Y21100477D01*
X16920000Y21195715D01*
X16967619Y21243334D01*
X17062857Y21290953D01*
X17205714Y21290953D01*
X17300952Y21243334D01*
X17348571Y21195715D01*
X17396190Y21100477D01*
X17396190Y20719524D01*
X17872381Y22243334D02*
X17872381Y21671905D01*
X17872381Y21957619D02*
X16872381Y21957619D01*
X17015238Y21862381D01*
X17110476Y21767143D01*
X17158095Y21671905D01*
X16872381Y22862381D02*
X16872381Y22957620D01*
X16920000Y23052858D01*
X16967619Y23100477D01*
X17062857Y23148096D01*
X17253333Y23195715D01*
X17491429Y23195715D01*
X17681905Y23148096D01*
X17777143Y23100477D01*
X17824762Y23052858D01*
X17872381Y22957620D01*
X17872381Y22862381D01*
X17824762Y22767143D01*
X17777143Y22719524D01*
X17681905Y22671905D01*
X17491429Y22624286D01*
X17253333Y22624286D01*
X17062857Y22671905D01*
X16967619Y22719524D01*
X16920000Y22767143D01*
X16872381Y22862381D01*
X16872381Y23529048D02*
X16872381Y24148096D01*
X17253333Y23814762D01*
X17253333Y23957620D01*
X17300952Y24052858D01*
X17348571Y24100477D01*
X17443810Y24148096D01*
X17681905Y24148096D01*
X17777143Y24100477D01*
X17824762Y24052858D01*
X17872381Y23957620D01*
X17872381Y23671905D01*
X17824762Y23576667D01*
X17777143Y23529048D01*
X7777143Y6590953D02*
X7824762Y6543334D01*
X7872381Y6400477D01*
X7872381Y6305239D01*
X7824762Y6162381D01*
X7729524Y6067143D01*
X7634286Y6019524D01*
X7443810Y5971905D01*
X7300952Y5971905D01*
X7110476Y6019524D01*
X7015238Y6067143D01*
X6920000Y6162381D01*
X6872381Y6305239D01*
X6872381Y6400477D01*
X6920000Y6543334D01*
X6967619Y6590953D01*
X7872381Y7543334D02*
X7872381Y6971905D01*
X7872381Y7257619D02*
X6872381Y7257619D01*
X7015238Y7162381D01*
X7110476Y7067143D01*
X7158095Y6971905D01*
X6872381Y8162381D02*
X6872381Y8257620D01*
X6920000Y8352858D01*
X6967619Y8400477D01*
X7062857Y8448096D01*
X7253333Y8495715D01*
X7491429Y8495715D01*
X7681905Y8448096D01*
X7777143Y8400477D01*
X7824762Y8352858D01*
X7872381Y8257620D01*
X7872381Y8162381D01*
X7824762Y8067143D01*
X7777143Y8019524D01*
X7681905Y7971905D01*
X7491429Y7924286D01*
X7253333Y7924286D01*
X7062857Y7971905D01*
X6967619Y8019524D01*
X6920000Y8067143D01*
X6872381Y8162381D01*
X7872381Y9448096D02*
X7872381Y8876667D01*
X7872381Y9162381D02*
X6872381Y9162381D01*
X7015238Y9067143D01*
X7110476Y8971905D01*
X7158095Y8876667D01*
X9900953Y11352857D02*
X9853334Y11305238D01*
X9710477Y11257619D01*
X9615239Y11257619D01*
X9472381Y11305238D01*
X9377143Y11400476D01*
X9329524Y11495714D01*
X9281905Y11686190D01*
X9281905Y11829048D01*
X9329524Y12019524D01*
X9377143Y12114762D01*
X9472381Y12210000D01*
X9615239Y12257619D01*
X9710477Y12257619D01*
X9853334Y12210000D01*
X9900953Y12162381D01*
X10853334Y11257619D02*
X10281905Y11257619D01*
X10567619Y11257619D02*
X10567619Y12257619D01*
X10472381Y12114762D01*
X10377143Y12019524D01*
X10281905Y11971905D01*
X11472381Y12257619D02*
X11567620Y12257619D01*
X11662858Y12210000D01*
X11710477Y12162381D01*
X11758096Y12067143D01*
X11805715Y11876667D01*
X11805715Y11638571D01*
X11758096Y11448095D01*
X11710477Y11352857D01*
X11662858Y11305238D01*
X11567620Y11257619D01*
X11472381Y11257619D01*
X11377143Y11305238D01*
X11329524Y11352857D01*
X11281905Y11448095D01*
X11234286Y11638571D01*
X11234286Y11876667D01*
X11281905Y12067143D01*
X11329524Y12162381D01*
X11377143Y12210000D01*
X11472381Y12257619D01*
X12710477Y12257619D02*
X12234286Y12257619D01*
X12186667Y11781429D01*
X12234286Y11829048D01*
X12329524Y11876667D01*
X12567620Y11876667D01*
X12662858Y11829048D01*
X12710477Y11781429D01*
X12758096Y11686190D01*
X12758096Y11448095D01*
X12710477Y11352857D01*
X12662858Y11305238D01*
X12567620Y11257619D01*
X12329524Y11257619D01*
X12234286Y11305238D01*
X12186667Y11352857D01*
X19437143Y10790953D02*
X19484762Y10743334D01*
X19532381Y10600477D01*
X19532381Y10505239D01*
X19484762Y10362381D01*
X19389524Y10267143D01*
X19294286Y10219524D01*
X19103810Y10171905D01*
X18960952Y10171905D01*
X18770476Y10219524D01*
X18675238Y10267143D01*
X18580000Y10362381D01*
X18532381Y10505239D01*
X18532381Y10600477D01*
X18580000Y10743334D01*
X18627619Y10790953D01*
X19532381Y11743334D02*
X19532381Y11171905D01*
X19532381Y11457619D02*
X18532381Y11457619D01*
X18675238Y11362381D01*
X18770476Y11267143D01*
X18818095Y11171905D01*
X18532381Y12362381D02*
X18532381Y12457620D01*
X18580000Y12552858D01*
X18627619Y12600477D01*
X18722857Y12648096D01*
X18913333Y12695715D01*
X19151429Y12695715D01*
X19341905Y12648096D01*
X19437143Y12600477D01*
X19484762Y12552858D01*
X19532381Y12457620D01*
X19532381Y12362381D01*
X19484762Y12267143D01*
X19437143Y12219524D01*
X19341905Y12171905D01*
X19151429Y12124286D01*
X18913333Y12124286D01*
X18722857Y12171905D01*
X18627619Y12219524D01*
X18580000Y12267143D01*
X18532381Y12362381D01*
X18532381Y13552858D02*
X18532381Y13362381D01*
X18580000Y13267143D01*
X18627619Y13219524D01*
X18770476Y13124286D01*
X18960952Y13076667D01*
X19341905Y13076667D01*
X19437143Y13124286D01*
X19484762Y13171905D01*
X19532381Y13267143D01*
X19532381Y13457620D01*
X19484762Y13552858D01*
X19437143Y13600477D01*
X19341905Y13648096D01*
X19103810Y13648096D01*
X19008571Y13600477D01*
X18960952Y13552858D01*
X18913333Y13457620D01*
X18913333Y13267143D01*
X18960952Y13171905D01*
X19008571Y13124286D01*
X19103810Y13076667D01*
X21777143Y10770953D02*
X21824762Y10723334D01*
X21872381Y10580477D01*
X21872381Y10485239D01*
X21824762Y10342381D01*
X21729524Y10247143D01*
X21634286Y10199524D01*
X21443810Y10151905D01*
X21300952Y10151905D01*
X21110476Y10199524D01*
X21015238Y10247143D01*
X20920000Y10342381D01*
X20872381Y10485239D01*
X20872381Y10580477D01*
X20920000Y10723334D01*
X20967619Y10770953D01*
X21872381Y11723334D02*
X21872381Y11151905D01*
X21872381Y11437619D02*
X20872381Y11437619D01*
X21015238Y11342381D01*
X21110476Y11247143D01*
X21158095Y11151905D01*
X20872381Y12342381D02*
X20872381Y12437620D01*
X20920000Y12532858D01*
X20967619Y12580477D01*
X21062857Y12628096D01*
X21253333Y12675715D01*
X21491429Y12675715D01*
X21681905Y12628096D01*
X21777143Y12580477D01*
X21824762Y12532858D01*
X21872381Y12437620D01*
X21872381Y12342381D01*
X21824762Y12247143D01*
X21777143Y12199524D01*
X21681905Y12151905D01*
X21491429Y12104286D01*
X21253333Y12104286D01*
X21062857Y12151905D01*
X20967619Y12199524D01*
X20920000Y12247143D01*
X20872381Y12342381D01*
X20872381Y13009048D02*
X20872381Y13675715D01*
X21872381Y13247143D01*
X51177143Y4990953D02*
X51224762Y4943334D01*
X51272381Y4800477D01*
X51272381Y4705239D01*
X51224762Y4562381D01*
X51129524Y4467143D01*
X51034286Y4419524D01*
X50843810Y4371905D01*
X50700952Y4371905D01*
X50510476Y4419524D01*
X50415238Y4467143D01*
X50320000Y4562381D01*
X50272381Y4705239D01*
X50272381Y4800477D01*
X50320000Y4943334D01*
X50367619Y4990953D01*
X51272381Y5943334D02*
X51272381Y5371905D01*
X51272381Y5657619D02*
X50272381Y5657619D01*
X50415238Y5562381D01*
X50510476Y5467143D01*
X50558095Y5371905D01*
X50272381Y6562381D02*
X50272381Y6657620D01*
X50320000Y6752858D01*
X50367619Y6800477D01*
X50462857Y6848096D01*
X50653333Y6895715D01*
X50891429Y6895715D01*
X51081905Y6848096D01*
X51177143Y6800477D01*
X51224762Y6752858D01*
X51272381Y6657620D01*
X51272381Y6562381D01*
X51224762Y6467143D01*
X51177143Y6419524D01*
X51081905Y6371905D01*
X50891429Y6324286D01*
X50653333Y6324286D01*
X50462857Y6371905D01*
X50367619Y6419524D01*
X50320000Y6467143D01*
X50272381Y6562381D01*
X50700952Y7467143D02*
X50653333Y7371905D01*
X50605714Y7324286D01*
X50510476Y7276667D01*
X50462857Y7276667D01*
X50367619Y7324286D01*
X50320000Y7371905D01*
X50272381Y7467143D01*
X50272381Y7657620D01*
X50320000Y7752858D01*
X50367619Y7800477D01*
X50462857Y7848096D01*
X50510476Y7848096D01*
X50605714Y7800477D01*
X50653333Y7752858D01*
X50700952Y7657620D01*
X50700952Y7467143D01*
X50748571Y7371905D01*
X50796190Y7324286D01*
X50891429Y7276667D01*
X51081905Y7276667D01*
X51177143Y7324286D01*
X51224762Y7371905D01*
X51272381Y7467143D01*
X51272381Y7657620D01*
X51224762Y7752858D01*
X51177143Y7800477D01*
X51081905Y7848096D01*
X50891429Y7848096D01*
X50796190Y7800477D01*
X50748571Y7752858D01*
X50700952Y7657620D01*
X12991429Y13857619D02*
X12991429Y14857619D01*
X14039048Y13952857D02*
X13991429Y13905238D01*
X13848572Y13857619D01*
X13753334Y13857619D01*
X13610476Y13905238D01*
X13515238Y14000476D01*
X13467619Y14095714D01*
X13420000Y14286190D01*
X13420000Y14429048D01*
X13467619Y14619524D01*
X13515238Y14714762D01*
X13610476Y14810000D01*
X13753334Y14857619D01*
X13848572Y14857619D01*
X13991429Y14810000D01*
X14039048Y14762381D01*
X14991429Y13857619D02*
X14420000Y13857619D01*
X14705714Y13857619D02*
X14705714Y14857619D01*
X14610476Y14714762D01*
X14515238Y14619524D01*
X14420000Y14571905D01*
X15610476Y14857619D02*
X15705715Y14857619D01*
X15800953Y14810000D01*
X15848572Y14762381D01*
X15896191Y14667143D01*
X15943810Y14476667D01*
X15943810Y14238571D01*
X15896191Y14048095D01*
X15848572Y13952857D01*
X15800953Y13905238D01*
X15705715Y13857619D01*
X15610476Y13857619D01*
X15515238Y13905238D01*
X15467619Y13952857D01*
X15420000Y14048095D01*
X15372381Y14238571D01*
X15372381Y14476667D01*
X15420000Y14667143D01*
X15467619Y14762381D01*
X15515238Y14810000D01*
X15610476Y14857619D01*
X16896191Y13857619D02*
X16324762Y13857619D01*
X16610476Y13857619D02*
X16610476Y14857619D01*
X16515238Y14714762D01*
X16420000Y14619524D01*
X16324762Y14571905D01*
X11522381Y12319524D02*
X10522381Y12319524D01*
X10522381Y12700477D01*
X10570000Y12795715D01*
X10617619Y12843334D01*
X10712857Y12890953D01*
X10855714Y12890953D01*
X10950952Y12843334D01*
X10998571Y12795715D01*
X11046190Y12700477D01*
X11046190Y12319524D01*
X11522381Y13843334D02*
X11522381Y13271905D01*
X11522381Y13557619D02*
X10522381Y13557619D01*
X10665238Y13462381D01*
X10760476Y13367143D01*
X10808095Y13271905D01*
X10522381Y14462381D02*
X10522381Y14557620D01*
X10570000Y14652858D01*
X10617619Y14700477D01*
X10712857Y14748096D01*
X10903333Y14795715D01*
X11141429Y14795715D01*
X11331905Y14748096D01*
X11427143Y14700477D01*
X11474762Y14652858D01*
X11522381Y14557620D01*
X11522381Y14462381D01*
X11474762Y14367143D01*
X11427143Y14319524D01*
X11331905Y14271905D01*
X11141429Y14224286D01*
X10903333Y14224286D01*
X10712857Y14271905D01*
X10617619Y14319524D01*
X10570000Y14367143D01*
X10522381Y14462381D01*
X11522381Y15748096D02*
X11522381Y15176667D01*
X11522381Y15462381D02*
X10522381Y15462381D01*
X10665238Y15367143D01*
X10760476Y15271905D01*
X10808095Y15176667D01*
X45470953Y6717619D02*
X45137619Y7193810D01*
X44899524Y6717619D02*
X44899524Y7717619D01*
X45280477Y7717619D01*
X45375715Y7670000D01*
X45423334Y7622381D01*
X45470953Y7527143D01*
X45470953Y7384286D01*
X45423334Y7289048D01*
X45375715Y7241429D01*
X45280477Y7193810D01*
X44899524Y7193810D01*
X46423334Y6717619D02*
X45851905Y6717619D01*
X46137619Y6717619D02*
X46137619Y7717619D01*
X46042381Y7574762D01*
X45947143Y7479524D01*
X45851905Y7431905D01*
X47042381Y7717619D02*
X47137620Y7717619D01*
X47232858Y7670000D01*
X47280477Y7622381D01*
X47328096Y7527143D01*
X47375715Y7336667D01*
X47375715Y7098571D01*
X47328096Y6908095D01*
X47280477Y6812857D01*
X47232858Y6765238D01*
X47137620Y6717619D01*
X47042381Y6717619D01*
X46947143Y6765238D01*
X46899524Y6812857D01*
X46851905Y6908095D01*
X46804286Y7098571D01*
X46804286Y7336667D01*
X46851905Y7527143D01*
X46899524Y7622381D01*
X46947143Y7670000D01*
X47042381Y7717619D01*
X47756667Y7622381D02*
X47804286Y7670000D01*
X47899524Y7717619D01*
X48137620Y7717619D01*
X48232858Y7670000D01*
X48280477Y7622381D01*
X48328096Y7527143D01*
X48328096Y7431905D01*
X48280477Y7289048D01*
X47709048Y6717619D01*
X48328096Y6717619D01*
X48872381Y4690953D02*
X48396190Y4357619D01*
X48872381Y4119524D02*
X47872381Y4119524D01*
X47872381Y4500477D01*
X47920000Y4595715D01*
X47967619Y4643334D01*
X48062857Y4690953D01*
X48205714Y4690953D01*
X48300952Y4643334D01*
X48348571Y4595715D01*
X48396190Y4500477D01*
X48396190Y4119524D01*
X48872381Y5643334D02*
X48872381Y5071905D01*
X48872381Y5357619D02*
X47872381Y5357619D01*
X48015238Y5262381D01*
X48110476Y5167143D01*
X48158095Y5071905D01*
X47872381Y6262381D02*
X47872381Y6357620D01*
X47920000Y6452858D01*
X47967619Y6500477D01*
X48062857Y6548096D01*
X48253333Y6595715D01*
X48491429Y6595715D01*
X48681905Y6548096D01*
X48777143Y6500477D01*
X48824762Y6452858D01*
X48872381Y6357620D01*
X48872381Y6262381D01*
X48824762Y6167143D01*
X48777143Y6119524D01*
X48681905Y6071905D01*
X48491429Y6024286D01*
X48253333Y6024286D01*
X48062857Y6071905D01*
X47967619Y6119524D01*
X47920000Y6167143D01*
X47872381Y6262381D01*
X47872381Y6929048D02*
X47872381Y7548096D01*
X48253333Y7214762D01*
X48253333Y7357620D01*
X48300952Y7452858D01*
X48348571Y7500477D01*
X48443810Y7548096D01*
X48681905Y7548096D01*
X48777143Y7500477D01*
X48824762Y7452858D01*
X48872381Y7357620D01*
X48872381Y7071905D01*
X48824762Y6976667D01*
X48777143Y6929048D01*
X42372381Y4640953D02*
X41896190Y4307619D01*
X42372381Y4069524D02*
X41372381Y4069524D01*
X41372381Y4450477D01*
X41420000Y4545715D01*
X41467619Y4593334D01*
X41562857Y4640953D01*
X41705714Y4640953D01*
X41800952Y4593334D01*
X41848571Y4545715D01*
X41896190Y4450477D01*
X41896190Y4069524D01*
X42372381Y5593334D02*
X42372381Y5021905D01*
X42372381Y5307619D02*
X41372381Y5307619D01*
X41515238Y5212381D01*
X41610476Y5117143D01*
X41658095Y5021905D01*
X41372381Y6212381D02*
X41372381Y6307620D01*
X41420000Y6402858D01*
X41467619Y6450477D01*
X41562857Y6498096D01*
X41753333Y6545715D01*
X41991429Y6545715D01*
X42181905Y6498096D01*
X42277143Y6450477D01*
X42324762Y6402858D01*
X42372381Y6307620D01*
X42372381Y6212381D01*
X42324762Y6117143D01*
X42277143Y6069524D01*
X42181905Y6021905D01*
X41991429Y5974286D01*
X41753333Y5974286D01*
X41562857Y6021905D01*
X41467619Y6069524D01*
X41420000Y6117143D01*
X41372381Y6212381D01*
X41705714Y7402858D02*
X42372381Y7402858D01*
X41324762Y7164762D02*
X42039048Y6926667D01*
X42039048Y7545715D01*
X36882381Y9440953D02*
X36406190Y9107619D01*
X36882381Y8869524D02*
X35882381Y8869524D01*
X35882381Y9250477D01*
X35930000Y9345715D01*
X35977619Y9393334D01*
X36072857Y9440953D01*
X36215714Y9440953D01*
X36310952Y9393334D01*
X36358571Y9345715D01*
X36406190Y9250477D01*
X36406190Y8869524D01*
X36882381Y10393334D02*
X36882381Y9821905D01*
X36882381Y10107619D02*
X35882381Y10107619D01*
X36025238Y10012381D01*
X36120476Y9917143D01*
X36168095Y9821905D01*
X35882381Y11012381D02*
X35882381Y11107620D01*
X35930000Y11202858D01*
X35977619Y11250477D01*
X36072857Y11298096D01*
X36263333Y11345715D01*
X36501429Y11345715D01*
X36691905Y11298096D01*
X36787143Y11250477D01*
X36834762Y11202858D01*
X36882381Y11107620D01*
X36882381Y11012381D01*
X36834762Y10917143D01*
X36787143Y10869524D01*
X36691905Y10821905D01*
X36501429Y10774286D01*
X36263333Y10774286D01*
X36072857Y10821905D01*
X35977619Y10869524D01*
X35930000Y10917143D01*
X35882381Y11012381D01*
X35882381Y12202858D02*
X35882381Y12012381D01*
X35930000Y11917143D01*
X35977619Y11869524D01*
X36120476Y11774286D01*
X36310952Y11726667D01*
X36691905Y11726667D01*
X36787143Y11774286D01*
X36834762Y11821905D01*
X36882381Y11917143D01*
X36882381Y12107620D01*
X36834762Y12202858D01*
X36787143Y12250477D01*
X36691905Y12298096D01*
X36453810Y12298096D01*
X36358571Y12250477D01*
X36310952Y12202858D01*
X36263333Y12107620D01*
X36263333Y11917143D01*
X36310952Y11821905D01*
X36358571Y11774286D01*
X36453810Y11726667D01*
X41412381Y9450953D02*
X40936190Y9117619D01*
X41412381Y8879524D02*
X40412381Y8879524D01*
X40412381Y9260477D01*
X40460000Y9355715D01*
X40507619Y9403334D01*
X40602857Y9450953D01*
X40745714Y9450953D01*
X40840952Y9403334D01*
X40888571Y9355715D01*
X40936190Y9260477D01*
X40936190Y8879524D01*
X41412381Y10403334D02*
X41412381Y9831905D01*
X41412381Y10117619D02*
X40412381Y10117619D01*
X40555238Y10022381D01*
X40650476Y9927143D01*
X40698095Y9831905D01*
X40412381Y11022381D02*
X40412381Y11117620D01*
X40460000Y11212858D01*
X40507619Y11260477D01*
X40602857Y11308096D01*
X40793333Y11355715D01*
X41031429Y11355715D01*
X41221905Y11308096D01*
X41317143Y11260477D01*
X41364762Y11212858D01*
X41412381Y11117620D01*
X41412381Y11022381D01*
X41364762Y10927143D01*
X41317143Y10879524D01*
X41221905Y10831905D01*
X41031429Y10784286D01*
X40793333Y10784286D01*
X40602857Y10831905D01*
X40507619Y10879524D01*
X40460000Y10927143D01*
X40412381Y11022381D01*
X40840952Y11927143D02*
X40793333Y11831905D01*
X40745714Y11784286D01*
X40650476Y11736667D01*
X40602857Y11736667D01*
X40507619Y11784286D01*
X40460000Y11831905D01*
X40412381Y11927143D01*
X40412381Y12117620D01*
X40460000Y12212858D01*
X40507619Y12260477D01*
X40602857Y12308096D01*
X40650476Y12308096D01*
X40745714Y12260477D01*
X40793333Y12212858D01*
X40840952Y12117620D01*
X40840952Y11927143D01*
X40888571Y11831905D01*
X40936190Y11784286D01*
X41031429Y11736667D01*
X41221905Y11736667D01*
X41317143Y11784286D01*
X41364762Y11831905D01*
X41412381Y11927143D01*
X41412381Y12117620D01*
X41364762Y12212858D01*
X41317143Y12260477D01*
X41221905Y12308096D01*
X41031429Y12308096D01*
X40936190Y12260477D01*
X40888571Y12212858D01*
X40840952Y12117620D01*
X44072381Y13090953D02*
X43596190Y12757619D01*
X44072381Y12519524D02*
X43072381Y12519524D01*
X43072381Y12900477D01*
X43120000Y12995715D01*
X43167619Y13043334D01*
X43262857Y13090953D01*
X43405714Y13090953D01*
X43500952Y13043334D01*
X43548571Y12995715D01*
X43596190Y12900477D01*
X43596190Y12519524D01*
X44072381Y14043334D02*
X44072381Y13471905D01*
X44072381Y13757619D02*
X43072381Y13757619D01*
X43215238Y13662381D01*
X43310476Y13567143D01*
X43358095Y13471905D01*
X43072381Y14662381D02*
X43072381Y14757620D01*
X43120000Y14852858D01*
X43167619Y14900477D01*
X43262857Y14948096D01*
X43453333Y14995715D01*
X43691429Y14995715D01*
X43881905Y14948096D01*
X43977143Y14900477D01*
X44024762Y14852858D01*
X44072381Y14757620D01*
X44072381Y14662381D01*
X44024762Y14567143D01*
X43977143Y14519524D01*
X43881905Y14471905D01*
X43691429Y14424286D01*
X43453333Y14424286D01*
X43262857Y14471905D01*
X43167619Y14519524D01*
X43120000Y14567143D01*
X43072381Y14662381D01*
X44072381Y15471905D02*
X44072381Y15662381D01*
X44024762Y15757620D01*
X43977143Y15805239D01*
X43834286Y15900477D01*
X43643810Y15948096D01*
X43262857Y15948096D01*
X43167619Y15900477D01*
X43120000Y15852858D01*
X43072381Y15757620D01*
X43072381Y15567143D01*
X43120000Y15471905D01*
X43167619Y15424286D01*
X43262857Y15376667D01*
X43500952Y15376667D01*
X43596190Y15424286D01*
X43643810Y15471905D01*
X43691429Y15567143D01*
X43691429Y15757620D01*
X43643810Y15852858D01*
X43596190Y15900477D01*
X43500952Y15948096D01*
X35672381Y16890953D02*
X35196190Y16557619D01*
X35672381Y16319524D02*
X34672381Y16319524D01*
X34672381Y16700477D01*
X34720000Y16795715D01*
X34767619Y16843334D01*
X34862857Y16890953D01*
X35005714Y16890953D01*
X35100952Y16843334D01*
X35148571Y16795715D01*
X35196190Y16700477D01*
X35196190Y16319524D01*
X35672381Y17843334D02*
X35672381Y17271905D01*
X35672381Y17557619D02*
X34672381Y17557619D01*
X34815238Y17462381D01*
X34910476Y17367143D01*
X34958095Y17271905D01*
X35672381Y18795715D02*
X35672381Y18224286D01*
X35672381Y18510000D02*
X34672381Y18510000D01*
X34815238Y18414762D01*
X34910476Y18319524D01*
X34958095Y18224286D01*
X34672381Y19414762D02*
X34672381Y19510001D01*
X34720000Y19605239D01*
X34767619Y19652858D01*
X34862857Y19700477D01*
X35053333Y19748096D01*
X35291429Y19748096D01*
X35481905Y19700477D01*
X35577143Y19652858D01*
X35624762Y19605239D01*
X35672381Y19510001D01*
X35672381Y19414762D01*
X35624762Y19319524D01*
X35577143Y19271905D01*
X35481905Y19224286D01*
X35291429Y19176667D01*
X35053333Y19176667D01*
X34862857Y19224286D01*
X34767619Y19271905D01*
X34720000Y19319524D01*
X34672381Y19414762D01*
X14105714Y12657619D02*
X14105714Y11848095D01*
X14153333Y11752857D01*
X14200952Y11705238D01*
X14296190Y11657619D01*
X14486667Y11657619D01*
X14581905Y11705238D01*
X14629524Y11752857D01*
X14677143Y11848095D01*
X14677143Y12657619D01*
X15677143Y11657619D02*
X15105714Y11657619D01*
X15391428Y11657619D02*
X15391428Y12657619D01*
X15296190Y12514762D01*
X15200952Y12419524D01*
X15105714Y12371905D01*
X16296190Y12657619D02*
X16391429Y12657619D01*
X16486667Y12610000D01*
X16534286Y12562381D01*
X16581905Y12467143D01*
X16629524Y12276667D01*
X16629524Y12038571D01*
X16581905Y11848095D01*
X16534286Y11752857D01*
X16486667Y11705238D01*
X16391429Y11657619D01*
X16296190Y11657619D01*
X16200952Y11705238D01*
X16153333Y11752857D01*
X16105714Y11848095D01*
X16058095Y12038571D01*
X16058095Y12276667D01*
X16105714Y12467143D01*
X16153333Y12562381D01*
X16200952Y12610000D01*
X16296190Y12657619D01*
X17581905Y11657619D02*
X17010476Y11657619D01*
X17296190Y11657619D02*
X17296190Y12657619D01*
X17200952Y12514762D01*
X17105714Y12419524D01*
X17010476Y12371905D01*
X44772381Y14395714D02*
X45581905Y14395714D01*
X45677143Y14443333D01*
X45724762Y14490952D01*
X45772381Y14586190D01*
X45772381Y14776667D01*
X45724762Y14871905D01*
X45677143Y14919524D01*
X45581905Y14967143D01*
X44772381Y14967143D01*
X45772381Y15967143D02*
X45772381Y15395714D01*
X45772381Y15681428D02*
X44772381Y15681428D01*
X44915238Y15586190D01*
X45010476Y15490952D01*
X45058095Y15395714D01*
X44772381Y16586190D02*
X44772381Y16681429D01*
X44820000Y16776667D01*
X44867619Y16824286D01*
X44962857Y16871905D01*
X45153333Y16919524D01*
X45391429Y16919524D01*
X45581905Y16871905D01*
X45677143Y16824286D01*
X45724762Y16776667D01*
X45772381Y16681429D01*
X45772381Y16586190D01*
X45724762Y16490952D01*
X45677143Y16443333D01*
X45581905Y16395714D01*
X45391429Y16348095D01*
X45153333Y16348095D01*
X44962857Y16395714D01*
X44867619Y16443333D01*
X44820000Y16490952D01*
X44772381Y16586190D01*
X44772381Y17252857D02*
X44772381Y17871905D01*
X45153333Y17538571D01*
X45153333Y17681429D01*
X45200952Y17776667D01*
X45248571Y17824286D01*
X45343810Y17871905D01*
X45581905Y17871905D01*
X45677143Y17824286D01*
X45724762Y17776667D01*
X45772381Y17681429D01*
X45772381Y17395714D01*
X45724762Y17300476D01*
X45677143Y17252857D01*
X24797381Y12581429D02*
X23797381Y12581429D01*
X24702143Y13629048D02*
X24749762Y13581429D01*
X24797381Y13438572D01*
X24797381Y13343334D01*
X24749762Y13200476D01*
X24654524Y13105238D01*
X24559286Y13057619D01*
X24368810Y13010000D01*
X24225952Y13010000D01*
X24035476Y13057619D01*
X23940238Y13105238D01*
X23845000Y13200476D01*
X23797381Y13343334D01*
X23797381Y13438572D01*
X23845000Y13581429D01*
X23892619Y13629048D01*
X24797381Y14581429D02*
X24797381Y14010000D01*
X24797381Y14295714D02*
X23797381Y14295714D01*
X23940238Y14200476D01*
X24035476Y14105238D01*
X24083095Y14010000D01*
X23797381Y15200476D02*
X23797381Y15295715D01*
X23845000Y15390953D01*
X23892619Y15438572D01*
X23987857Y15486191D01*
X24178333Y15533810D01*
X24416429Y15533810D01*
X24606905Y15486191D01*
X24702143Y15438572D01*
X24749762Y15390953D01*
X24797381Y15295715D01*
X24797381Y15200476D01*
X24749762Y15105238D01*
X24702143Y15057619D01*
X24606905Y15010000D01*
X24416429Y14962381D01*
X24178333Y14962381D01*
X23987857Y15010000D01*
X23892619Y15057619D01*
X23845000Y15105238D01*
X23797381Y15200476D01*
X23892619Y15914762D02*
X23845000Y15962381D01*
X23797381Y16057619D01*
X23797381Y16295715D01*
X23845000Y16390953D01*
X23892619Y16438572D01*
X23987857Y16486191D01*
X24083095Y16486191D01*
X24225952Y16438572D01*
X24797381Y15867143D01*
X24797381Y16486191D01*
X49192381Y12019524D02*
X48192381Y12019524D01*
X48192381Y12400477D01*
X48240000Y12495715D01*
X48287619Y12543334D01*
X48382857Y12590953D01*
X48525714Y12590953D01*
X48620952Y12543334D01*
X48668571Y12495715D01*
X48716190Y12400477D01*
X48716190Y12019524D01*
X49192381Y13543334D02*
X49192381Y12971905D01*
X49192381Y13257619D02*
X48192381Y13257619D01*
X48335238Y13162381D01*
X48430476Y13067143D01*
X48478095Y12971905D01*
X48192381Y14162381D02*
X48192381Y14257620D01*
X48240000Y14352858D01*
X48287619Y14400477D01*
X48382857Y14448096D01*
X48573333Y14495715D01*
X48811429Y14495715D01*
X49001905Y14448096D01*
X49097143Y14400477D01*
X49144762Y14352858D01*
X49192381Y14257620D01*
X49192381Y14162381D01*
X49144762Y14067143D01*
X49097143Y14019524D01*
X49001905Y13971905D01*
X48811429Y13924286D01*
X48573333Y13924286D01*
X48382857Y13971905D01*
X48287619Y14019524D01*
X48240000Y14067143D01*
X48192381Y14162381D01*
X48287619Y14876667D02*
X48240000Y14924286D01*
X48192381Y15019524D01*
X48192381Y15257620D01*
X48240000Y15352858D01*
X48287619Y15400477D01*
X48382857Y15448096D01*
X48478095Y15448096D01*
X48620952Y15400477D01*
X49192381Y14829048D01*
X49192381Y15448096D01*
X16600953Y9952857D02*
X16553334Y9905238D01*
X16410477Y9857619D01*
X16315239Y9857619D01*
X16172381Y9905238D01*
X16077143Y10000476D01*
X16029524Y10095714D01*
X15981905Y10286190D01*
X15981905Y10429048D01*
X16029524Y10619524D01*
X16077143Y10714762D01*
X16172381Y10810000D01*
X16315239Y10857619D01*
X16410477Y10857619D01*
X16553334Y10810000D01*
X16600953Y10762381D01*
X17553334Y9857619D02*
X16981905Y9857619D01*
X17267619Y9857619D02*
X17267619Y10857619D01*
X17172381Y10714762D01*
X17077143Y10619524D01*
X16981905Y10571905D01*
X18172381Y10857619D02*
X18267620Y10857619D01*
X18362858Y10810000D01*
X18410477Y10762381D01*
X18458096Y10667143D01*
X18505715Y10476667D01*
X18505715Y10238571D01*
X18458096Y10048095D01*
X18410477Y9952857D01*
X18362858Y9905238D01*
X18267620Y9857619D01*
X18172381Y9857619D01*
X18077143Y9905238D01*
X18029524Y9952857D01*
X17981905Y10048095D01*
X17934286Y10238571D01*
X17934286Y10476667D01*
X17981905Y10667143D01*
X18029524Y10762381D01*
X18077143Y10810000D01*
X18172381Y10857619D01*
X19362858Y10524286D02*
X19362858Y9857619D01*
X19124762Y10905238D02*
X18886667Y10190952D01*
X19505715Y10190952D01*
X46277143Y13190953D02*
X46324762Y13143334D01*
X46372381Y13000477D01*
X46372381Y12905239D01*
X46324762Y12762381D01*
X46229524Y12667143D01*
X46134286Y12619524D01*
X45943810Y12571905D01*
X45800952Y12571905D01*
X45610476Y12619524D01*
X45515238Y12667143D01*
X45420000Y12762381D01*
X45372381Y12905239D01*
X45372381Y13000477D01*
X45420000Y13143334D01*
X45467619Y13190953D01*
X46372381Y14143334D02*
X46372381Y13571905D01*
X46372381Y13857619D02*
X45372381Y13857619D01*
X45515238Y13762381D01*
X45610476Y13667143D01*
X45658095Y13571905D01*
X45372381Y14762381D02*
X45372381Y14857620D01*
X45420000Y14952858D01*
X45467619Y15000477D01*
X45562857Y15048096D01*
X45753333Y15095715D01*
X45991429Y15095715D01*
X46181905Y15048096D01*
X46277143Y15000477D01*
X46324762Y14952858D01*
X46372381Y14857620D01*
X46372381Y14762381D01*
X46324762Y14667143D01*
X46277143Y14619524D01*
X46181905Y14571905D01*
X45991429Y14524286D01*
X45753333Y14524286D01*
X45562857Y14571905D01*
X45467619Y14619524D01*
X45420000Y14667143D01*
X45372381Y14762381D01*
X45467619Y15476667D02*
X45420000Y15524286D01*
X45372381Y15619524D01*
X45372381Y15857620D01*
X45420000Y15952858D01*
X45467619Y16000477D01*
X45562857Y16048096D01*
X45658095Y16048096D01*
X45800952Y16000477D01*
X46372381Y15429048D01*
X46372381Y16048096D01*
X45300953Y22997619D02*
X44967619Y23473810D01*
X44729524Y22997619D02*
X44729524Y23997619D01*
X45110477Y23997619D01*
X45205715Y23950000D01*
X45253334Y23902381D01*
X45300953Y23807143D01*
X45300953Y23664286D01*
X45253334Y23569048D01*
X45205715Y23521429D01*
X45110477Y23473810D01*
X44729524Y23473810D01*
X46253334Y22997619D02*
X45681905Y22997619D01*
X45967619Y22997619D02*
X45967619Y23997619D01*
X45872381Y23854762D01*
X45777143Y23759524D01*
X45681905Y23711905D01*
X46872381Y23997619D02*
X46967620Y23997619D01*
X47062858Y23950000D01*
X47110477Y23902381D01*
X47158096Y23807143D01*
X47205715Y23616667D01*
X47205715Y23378571D01*
X47158096Y23188095D01*
X47110477Y23092857D01*
X47062858Y23045238D01*
X46967620Y22997619D01*
X46872381Y22997619D01*
X46777143Y23045238D01*
X46729524Y23092857D01*
X46681905Y23188095D01*
X46634286Y23378571D01*
X46634286Y23616667D01*
X46681905Y23807143D01*
X46729524Y23902381D01*
X46777143Y23950000D01*
X46872381Y23997619D01*
X48158096Y22997619D02*
X47586667Y22997619D01*
X47872381Y22997619D02*
X47872381Y23997619D01*
X47777143Y23854762D01*
X47681905Y23759524D01*
X47586667Y23711905D01*
X42030953Y22997619D02*
X41697619Y23473810D01*
X41459524Y22997619D02*
X41459524Y23997619D01*
X41840477Y23997619D01*
X41935715Y23950000D01*
X41983334Y23902381D01*
X42030953Y23807143D01*
X42030953Y23664286D01*
X41983334Y23569048D01*
X41935715Y23521429D01*
X41840477Y23473810D01*
X41459524Y23473810D01*
X42983334Y22997619D02*
X42411905Y22997619D01*
X42697619Y22997619D02*
X42697619Y23997619D01*
X42602381Y23854762D01*
X42507143Y23759524D01*
X42411905Y23711905D01*
X43602381Y23997619D02*
X43697620Y23997619D01*
X43792858Y23950000D01*
X43840477Y23902381D01*
X43888096Y23807143D01*
X43935715Y23616667D01*
X43935715Y23378571D01*
X43888096Y23188095D01*
X43840477Y23092857D01*
X43792858Y23045238D01*
X43697620Y22997619D01*
X43602381Y22997619D01*
X43507143Y23045238D01*
X43459524Y23092857D01*
X43411905Y23188095D01*
X43364286Y23378571D01*
X43364286Y23616667D01*
X43411905Y23807143D01*
X43459524Y23902381D01*
X43507143Y23950000D01*
X43602381Y23997619D01*
X44840477Y23997619D02*
X44364286Y23997619D01*
X44316667Y23521429D01*
X44364286Y23569048D01*
X44459524Y23616667D01*
X44697620Y23616667D01*
X44792858Y23569048D01*
X44840477Y23521429D01*
X44888096Y23426190D01*
X44888096Y23188095D01*
X44840477Y23092857D01*
X44792858Y23045238D01*
X44697620Y22997619D01*
X44459524Y22997619D01*
X44364286Y23045238D01*
X44316667Y23092857D01*
X38790953Y22997619D02*
X38457619Y23473810D01*
X38219524Y22997619D02*
X38219524Y23997619D01*
X38600477Y23997619D01*
X38695715Y23950000D01*
X38743334Y23902381D01*
X38790953Y23807143D01*
X38790953Y23664286D01*
X38743334Y23569048D01*
X38695715Y23521429D01*
X38600477Y23473810D01*
X38219524Y23473810D01*
X39743334Y22997619D02*
X39171905Y22997619D01*
X39457619Y22997619D02*
X39457619Y23997619D01*
X39362381Y23854762D01*
X39267143Y23759524D01*
X39171905Y23711905D01*
X40362381Y23997619D02*
X40457620Y23997619D01*
X40552858Y23950000D01*
X40600477Y23902381D01*
X40648096Y23807143D01*
X40695715Y23616667D01*
X40695715Y23378571D01*
X40648096Y23188095D01*
X40600477Y23092857D01*
X40552858Y23045238D01*
X40457620Y22997619D01*
X40362381Y22997619D01*
X40267143Y23045238D01*
X40219524Y23092857D01*
X40171905Y23188095D01*
X40124286Y23378571D01*
X40124286Y23616667D01*
X40171905Y23807143D01*
X40219524Y23902381D01*
X40267143Y23950000D01*
X40362381Y23997619D01*
X41029048Y23997619D02*
X41695715Y23997619D01*
X41267143Y22997619D01*
X39202381Y9430953D02*
X38726190Y9097619D01*
X39202381Y8859524D02*
X38202381Y8859524D01*
X38202381Y9240477D01*
X38250000Y9335715D01*
X38297619Y9383334D01*
X38392857Y9430953D01*
X38535714Y9430953D01*
X38630952Y9383334D01*
X38678571Y9335715D01*
X38726190Y9240477D01*
X38726190Y8859524D01*
X39202381Y10383334D02*
X39202381Y9811905D01*
X39202381Y10097619D02*
X38202381Y10097619D01*
X38345238Y10002381D01*
X38440476Y9907143D01*
X38488095Y9811905D01*
X39202381Y11335715D02*
X39202381Y10764286D01*
X39202381Y11050000D02*
X38202381Y11050000D01*
X38345238Y10954762D01*
X38440476Y10859524D01*
X38488095Y10764286D01*
X39202381Y12288096D02*
X39202381Y11716667D01*
X39202381Y12002381D02*
X38202381Y12002381D01*
X38345238Y11907143D01*
X38440476Y11811905D01*
X38488095Y11716667D01*
X42560953Y21182857D02*
X42513334Y21135238D01*
X42370477Y21087619D01*
X42275239Y21087619D01*
X42132381Y21135238D01*
X42037143Y21230476D01*
X41989524Y21325714D01*
X41941905Y21516190D01*
X41941905Y21659048D01*
X41989524Y21849524D01*
X42037143Y21944762D01*
X42132381Y22040000D01*
X42275239Y22087619D01*
X42370477Y22087619D01*
X42513334Y22040000D01*
X42560953Y21992381D01*
X43513334Y21087619D02*
X42941905Y21087619D01*
X43227619Y21087619D02*
X43227619Y22087619D01*
X43132381Y21944762D01*
X43037143Y21849524D01*
X42941905Y21801905D01*
X44132381Y22087619D02*
X44227620Y22087619D01*
X44322858Y22040000D01*
X44370477Y21992381D01*
X44418096Y21897143D01*
X44465715Y21706667D01*
X44465715Y21468571D01*
X44418096Y21278095D01*
X44370477Y21182857D01*
X44322858Y21135238D01*
X44227620Y21087619D01*
X44132381Y21087619D01*
X44037143Y21135238D01*
X43989524Y21182857D01*
X43941905Y21278095D01*
X43894286Y21468571D01*
X43894286Y21706667D01*
X43941905Y21897143D01*
X43989524Y21992381D01*
X44037143Y22040000D01*
X44132381Y22087619D01*
X44799048Y22087619D02*
X45418096Y22087619D01*
X45084762Y21706667D01*
X45227620Y21706667D01*
X45322858Y21659048D01*
X45370477Y21611429D01*
X45418096Y21516190D01*
X45418096Y21278095D01*
X45370477Y21182857D01*
X45322858Y21135238D01*
X45227620Y21087619D01*
X44941905Y21087619D01*
X44846667Y21135238D01*
X44799048Y21182857D01*
M02*
