G04 #@! TF.FileFunction,Copper,L2,Bot,Signal*
%FSLAX46Y46*%
G04 Gerber Fmt 4.6, Leading zero omitted, Abs format (unit mm)*
G04 Created by KiCad (PCBNEW 4.0.6) date Thursday, 09 June 2022 'PMt' 12:22:57*
%MOMM*%
%LPD*%
G01*
G04 APERTURE LIST*
%ADD10C,0.100000*%
%ADD11R,2.000000X3.000000*%
%ADD12O,2.000000X3.500000*%
%ADD13C,3.810000*%
%ADD14R,3.810000X3.810000*%
%ADD15C,1.500000*%
%ADD16C,1.000000*%
%ADD17C,1.200000*%
%ADD18C,0.800000*%
%ADD19C,0.500000*%
%ADD20C,1.000000*%
G04 APERTURE END LIST*
D10*
D11*
X22520000Y22410000D03*
D12*
X25060000Y22410000D03*
X27600000Y22410000D03*
X30140000Y22410000D03*
X32680000Y22410000D03*
D13*
X4720000Y16550000D03*
X4720000Y11470000D03*
D14*
X4720000Y21630000D03*
D13*
X4720000Y6390000D03*
X53820000Y8630000D03*
X53820000Y13710000D03*
D14*
X53820000Y3550000D03*
D13*
X53820000Y18790000D03*
X53820000Y23870000D03*
D15*
X9620000Y3910000D03*
X9720000Y11540000D03*
X48620000Y2760000D03*
D16*
X45300000Y11260000D03*
D15*
X21320000Y8810000D03*
X14070000Y13860000D03*
X40270000Y4710000D03*
X19920000Y17710000D03*
D16*
X27120000Y9410000D03*
D15*
X9720000Y19310000D03*
X9330000Y17090000D03*
D16*
X41820000Y6710000D03*
D15*
X39140000Y23780000D03*
X47880000Y18750000D03*
X49180000Y9300000D03*
D17*
X4720000Y6390000D02*
X7140000Y6390000D01*
X7140000Y6390000D02*
X9620000Y3910000D01*
X9720000Y11540000D02*
X9720000Y12530000D01*
X9720000Y12530000D02*
X11420000Y14230000D01*
X4720000Y11470000D02*
X9650000Y11470000D01*
X9650000Y11470000D02*
X9720000Y11540000D01*
X37370000Y2760000D02*
X48620000Y2760000D01*
X37370000Y2760000D02*
X36590000Y3110000D01*
X22520000Y17180000D02*
X22520000Y22410000D01*
X36590000Y3110000D02*
X22520000Y17180000D01*
D18*
X22520000Y17960000D02*
X22520000Y22410000D01*
D17*
X49060000Y3200000D02*
X53820000Y3550000D01*
D19*
X48620000Y2410000D02*
X49060000Y2850000D01*
D17*
X11420000Y14210000D02*
X11420000Y14230000D01*
X11420000Y14230000D02*
X11420000Y22010000D01*
X11820000Y22410000D02*
X22520000Y22410000D01*
X11420000Y22010000D02*
X11820000Y22410000D01*
X40270000Y7410000D02*
X40270000Y9320000D01*
X40270000Y4710000D02*
X40270000Y7410000D01*
X42210000Y11260000D02*
X45300000Y11260000D01*
X40270000Y9320000D02*
X42210000Y11260000D01*
X19120000Y8810000D02*
X21320000Y8810000D01*
X14070000Y13860000D02*
X19120000Y8810000D01*
D20*
X40270000Y4710000D02*
X37920000Y4710000D01*
D17*
X25060000Y17570000D02*
X25060000Y22410000D01*
X37920000Y4710000D02*
X25060000Y17570000D01*
D20*
X19920000Y16610000D02*
X19920000Y17710000D01*
X27120000Y9410000D02*
X19920000Y16610000D01*
X4720000Y21630000D02*
X7400000Y21630000D01*
X7400000Y21630000D02*
X9720000Y19310000D01*
X9260000Y16550000D02*
X4720000Y16550000D01*
D18*
X9330000Y17090000D02*
X9260000Y16550000D01*
D20*
X53820000Y8630000D02*
X51850000Y8630000D01*
X49930000Y6710000D02*
X41820000Y6710000D01*
X51850000Y8630000D02*
X49930000Y6710000D01*
D19*
X46130000Y23840000D02*
X46130000Y23870000D01*
X46100000Y23870000D02*
X46130000Y23840000D01*
D20*
X39230000Y23870000D02*
X46100000Y23870000D01*
D19*
X39140000Y23780000D02*
X39230000Y23870000D01*
X45880000Y23870000D02*
X46130000Y23870000D01*
D20*
X46130000Y23870000D02*
X53820000Y23870000D01*
X53820000Y18790000D02*
X47920000Y18790000D01*
D19*
X47920000Y18790000D02*
X47880000Y18750000D01*
D20*
X53820000Y13710000D02*
X50640000Y13710000D01*
X49180000Y12250000D02*
X49180000Y9300000D01*
X50640000Y13710000D02*
X49180000Y12250000D01*
G36*
X50907000Y3852000D02*
X51159000Y3600000D01*
X53770000Y3600000D01*
X53770000Y3620000D01*
X53870000Y3620000D01*
X53870000Y3600000D01*
X53890000Y3600000D01*
X53890000Y3500000D01*
X53870000Y3500000D01*
X53870000Y3480000D01*
X53770000Y3480000D01*
X53770000Y3500000D01*
X51159000Y3500000D01*
X50907000Y3248000D01*
X50907000Y3035000D01*
X49870000Y3035000D01*
X49618633Y2985000D01*
X42434472Y2985000D01*
X42599977Y3150216D01*
X43019522Y4160591D01*
X43019565Y4210000D01*
X49930000Y4210000D01*
X50886709Y4400301D01*
X50907000Y4413859D01*
X50907000Y3852000D01*
X50907000Y3852000D01*
G37*
X50907000Y3852000D02*
X51159000Y3600000D01*
X53770000Y3600000D01*
X53770000Y3620000D01*
X53870000Y3620000D01*
X53870000Y3600000D01*
X53890000Y3600000D01*
X53890000Y3500000D01*
X53870000Y3500000D01*
X53870000Y3480000D01*
X53770000Y3480000D01*
X53770000Y3500000D01*
X51159000Y3500000D01*
X50907000Y3248000D01*
X50907000Y3035000D01*
X49870000Y3035000D01*
X49618633Y2985000D01*
X42434472Y2985000D01*
X42599977Y3150216D01*
X43019522Y4160591D01*
X43019565Y4210000D01*
X49930000Y4210000D01*
X50886709Y4400301D01*
X50907000Y4413859D01*
X50907000Y3852000D01*
G36*
X20512000Y24110504D02*
X20512000Y22712000D01*
X20764000Y22460000D01*
X22060000Y22460000D01*
X22060000Y22360000D01*
X20764000Y22360000D01*
X20512000Y22108000D01*
X20512000Y20709496D01*
X20645899Y20386237D01*
X20469409Y20459522D01*
X19375391Y20460477D01*
X18364285Y20042696D01*
X17590023Y19269784D01*
X17170478Y18259409D01*
X17169523Y17165391D01*
X17439488Y16512026D01*
X17610301Y15653291D01*
X17989895Y15085189D01*
X18152233Y14842233D01*
X21434564Y11559902D01*
X20775391Y11560477D01*
X20411209Y11410000D01*
X20196955Y11410000D01*
X16551589Y15055367D01*
X16402696Y15415715D01*
X15629784Y16189977D01*
X14619409Y16609522D01*
X13525391Y16610477D01*
X12514285Y16192696D01*
X11740023Y15419784D01*
X11320478Y14409409D01*
X11319523Y13315391D01*
X11737304Y12304285D01*
X12510216Y11530023D01*
X12874133Y11378911D01*
X17281520Y6971525D01*
X17281522Y6971522D01*
X18125023Y6407913D01*
X19120000Y6210000D01*
X20410503Y6210000D01*
X20770591Y6060478D01*
X21864609Y6059523D01*
X22875715Y6477304D01*
X23649977Y7250216D01*
X24069522Y8260591D01*
X24070101Y8924365D01*
X25351550Y7642916D01*
X25702015Y7291839D01*
X26620538Y6910435D01*
X27615099Y6909567D01*
X28534286Y7289367D01*
X29238161Y7992015D01*
X29619565Y8910538D01*
X29619934Y9333111D01*
X35968045Y2985000D01*
X12213563Y2985000D01*
X12369522Y3360591D01*
X12370477Y4454609D01*
X11952696Y5465715D01*
X11179784Y6239977D01*
X10815866Y6391089D01*
X8978478Y8228478D01*
X8134977Y8792087D01*
X7766656Y8865351D01*
X6946774Y9686665D01*
X7151885Y9764936D01*
X7619269Y10825368D01*
X7645265Y11983940D01*
X7225916Y13064269D01*
X7151885Y13175064D01*
X6945422Y13253851D01*
X7742962Y14050000D01*
X9260000Y14050000D01*
X10216709Y14240301D01*
X11027767Y14782233D01*
X11262292Y15133225D01*
X11659977Y15530216D01*
X12079522Y16540591D01*
X12080477Y17634609D01*
X12037752Y17738012D01*
X12049977Y17750216D01*
X12469522Y18760591D01*
X12470477Y19854609D01*
X12052696Y20865715D01*
X11279784Y21639977D01*
X10674022Y21891512D01*
X9167767Y23397767D01*
X8621299Y23762905D01*
X8541876Y24185000D01*
X20542857Y24185000D01*
X20512000Y24110504D01*
X20512000Y24110504D01*
G37*
X20512000Y24110504D02*
X20512000Y22712000D01*
X20764000Y22460000D01*
X22060000Y22460000D01*
X22060000Y22360000D01*
X20764000Y22360000D01*
X20512000Y22108000D01*
X20512000Y20709496D01*
X20645899Y20386237D01*
X20469409Y20459522D01*
X19375391Y20460477D01*
X18364285Y20042696D01*
X17590023Y19269784D01*
X17170478Y18259409D01*
X17169523Y17165391D01*
X17439488Y16512026D01*
X17610301Y15653291D01*
X17989895Y15085189D01*
X18152233Y14842233D01*
X21434564Y11559902D01*
X20775391Y11560477D01*
X20411209Y11410000D01*
X20196955Y11410000D01*
X16551589Y15055367D01*
X16402696Y15415715D01*
X15629784Y16189977D01*
X14619409Y16609522D01*
X13525391Y16610477D01*
X12514285Y16192696D01*
X11740023Y15419784D01*
X11320478Y14409409D01*
X11319523Y13315391D01*
X11737304Y12304285D01*
X12510216Y11530023D01*
X12874133Y11378911D01*
X17281520Y6971525D01*
X17281522Y6971522D01*
X18125023Y6407913D01*
X19120000Y6210000D01*
X20410503Y6210000D01*
X20770591Y6060478D01*
X21864609Y6059523D01*
X22875715Y6477304D01*
X23649977Y7250216D01*
X24069522Y8260591D01*
X24070101Y8924365D01*
X25351550Y7642916D01*
X25702015Y7291839D01*
X26620538Y6910435D01*
X27615099Y6909567D01*
X28534286Y7289367D01*
X29238161Y7992015D01*
X29619565Y8910538D01*
X29619934Y9333111D01*
X35968045Y2985000D01*
X12213563Y2985000D01*
X12369522Y3360591D01*
X12370477Y4454609D01*
X11952696Y5465715D01*
X11179784Y6239977D01*
X10815866Y6391089D01*
X8978478Y8228478D01*
X8134977Y8792087D01*
X7766656Y8865351D01*
X6946774Y9686665D01*
X7151885Y9764936D01*
X7619269Y10825368D01*
X7645265Y11983940D01*
X7225916Y13064269D01*
X7151885Y13175064D01*
X6945422Y13253851D01*
X7742962Y14050000D01*
X9260000Y14050000D01*
X10216709Y14240301D01*
X11027767Y14782233D01*
X11262292Y15133225D01*
X11659977Y15530216D01*
X12079522Y16540591D01*
X12080477Y17634609D01*
X12037752Y17738012D01*
X12049977Y17750216D01*
X12469522Y18760591D01*
X12470477Y19854609D01*
X12052696Y20865715D01*
X11279784Y21639977D01*
X10674022Y21891512D01*
X9167767Y23397767D01*
X8621299Y23762905D01*
X8541876Y24185000D01*
X20542857Y24185000D01*
X20512000Y24110504D01*
G36*
X4804853Y11484142D02*
X4790711Y11470000D01*
X4804853Y11455858D01*
X4734142Y11385147D01*
X4720000Y11399289D01*
X4705858Y11385147D01*
X4635147Y11455858D01*
X4649289Y11470000D01*
X4635147Y11484142D01*
X4705858Y11554853D01*
X4720000Y11540711D01*
X4734142Y11554853D01*
X4804853Y11484142D01*
X4804853Y11484142D01*
G37*
X4804853Y11484142D02*
X4790711Y11470000D01*
X4804853Y11455858D01*
X4734142Y11385147D01*
X4720000Y11399289D01*
X4705858Y11385147D01*
X4635147Y11455858D01*
X4649289Y11470000D01*
X4635147Y11484142D01*
X4705858Y11554853D01*
X4720000Y11540711D01*
X4734142Y11554853D01*
X4804853Y11484142D01*
M02*
