G04 #@! TF.FileFunction,Copper,L1,Top,Signal*
%FSLAX46Y46*%
G04 Gerber Fmt 4.6, Leading zero omitted, Abs format (unit mm)*
G04 Created by KiCad (PCBNEW 4.0.6) date Thursday, 09 June 2022 'PMt' 12:22:57*
%MOMM*%
%LPD*%
G01*
G04 APERTURE LIST*
%ADD10C,0.100000*%
%ADD11R,2.000000X3.000000*%
%ADD12O,2.000000X3.500000*%
%ADD13R,1.600000X1.000000*%
%ADD14R,1.000000X1.250000*%
%ADD15R,1.250000X1.000000*%
%ADD16R,1.550000X0.600000*%
%ADD17C,3.810000*%
%ADD18R,3.810000X3.810000*%
%ADD19R,0.700000X1.300000*%
%ADD20R,1.300000X0.700000*%
%ADD21R,2.000000X3.800000*%
%ADD22R,2.000000X1.500000*%
%ADD23R,0.600000X1.550000*%
%ADD24R,0.600000X1.500000*%
%ADD25R,1.000000X1.600000*%
%ADD26C,1.500000*%
%ADD27C,1.000000*%
%ADD28C,0.800000*%
%ADD29C,1.200000*%
%ADD30C,0.500000*%
%ADD31C,1.000000*%
%ADD32C,2.000000*%
G04 APERTURE END LIST*
D10*
D11*
X22520000Y22410000D03*
D12*
X25060000Y22410000D03*
X27600000Y22410000D03*
X30140000Y22410000D03*
X32680000Y22410000D03*
D13*
X9720000Y6210000D03*
X9720000Y9210000D03*
D14*
X12020000Y13810000D03*
X10020000Y13810000D03*
D15*
X21180000Y10910000D03*
X21180000Y12910000D03*
X23520000Y10890000D03*
X23520000Y12890000D03*
X48720000Y7110000D03*
X48720000Y5110000D03*
D16*
X17620000Y15905000D03*
X17620000Y17175000D03*
X17620000Y18445000D03*
X17620000Y19715000D03*
X12220000Y19715000D03*
X12220000Y18445000D03*
X12220000Y17175000D03*
X12220000Y15905000D03*
D17*
X4720000Y16550000D03*
X4720000Y11470000D03*
D18*
X4720000Y21630000D03*
D17*
X4720000Y6390000D03*
D19*
X47540000Y9270000D03*
X45640000Y9270000D03*
D20*
X46320000Y6760000D03*
X46320000Y4860000D03*
X44020000Y4810000D03*
X44020000Y6710000D03*
X38530000Y9610000D03*
X38530000Y11510000D03*
X43060000Y9620000D03*
X43060000Y11520000D03*
X45720000Y13260000D03*
X45720000Y15160000D03*
X37320000Y17060000D03*
X37320000Y18960000D03*
D21*
X18970000Y7610000D03*
D22*
X12670000Y7610000D03*
X12670000Y5310000D03*
X12670000Y9910000D03*
D23*
X43725000Y18810000D03*
X42455000Y18810000D03*
X41185000Y18810000D03*
X39915000Y18810000D03*
X39915000Y13410000D03*
X41185000Y13410000D03*
X42455000Y13410000D03*
X43725000Y13410000D03*
D24*
X25910000Y11810000D03*
X27180000Y11810000D03*
X28450000Y11810000D03*
X29720000Y11810000D03*
X30990000Y11810000D03*
X32260000Y11810000D03*
X33530000Y11810000D03*
X33530000Y17210000D03*
X32260000Y17210000D03*
X30990000Y17210000D03*
X29720000Y17210000D03*
X28450000Y17210000D03*
X27180000Y17210000D03*
X25910000Y17210000D03*
D17*
X53820000Y8630000D03*
X53820000Y13710000D03*
D18*
X53820000Y3550000D03*
D17*
X53820000Y18790000D03*
X53820000Y23870000D03*
D25*
X19220000Y12610000D03*
X16220000Y12610000D03*
D15*
X48020000Y13310000D03*
X48020000Y15310000D03*
D19*
X45470000Y21350000D03*
X47370000Y21350000D03*
X42200000Y21350000D03*
X44100000Y21350000D03*
X38960000Y21350000D03*
X40860000Y21350000D03*
D20*
X40850000Y9600000D03*
X40850000Y11500000D03*
D14*
X44680000Y23640000D03*
X42680000Y23640000D03*
D26*
X9620000Y3910000D03*
X9720000Y11540000D03*
X48620000Y2760000D03*
D27*
X45300000Y11260000D03*
D26*
X21320000Y8810000D03*
X14070000Y13860000D03*
X40270000Y4710000D03*
X19920000Y17710000D03*
D27*
X27120000Y9410000D03*
D26*
X9720000Y19310000D03*
X9330000Y17090000D03*
D27*
X41820000Y6710000D03*
D26*
X39140000Y23780000D03*
X47880000Y18750000D03*
X49180000Y9300000D03*
D28*
X9720000Y6210000D02*
X10120000Y6210000D01*
D29*
X10120000Y6210000D02*
X11020000Y5310000D01*
X11020000Y5310000D02*
X12670000Y5310000D01*
X9720000Y4010000D02*
X9720000Y6210000D01*
D30*
X9620000Y3910000D02*
X9720000Y4010000D01*
D28*
X25910000Y17210000D02*
X24275638Y17210000D01*
X22520000Y18965638D02*
X22520000Y22410000D01*
X24275638Y17210000D02*
X22520000Y18965638D01*
D29*
X15520000Y11910000D02*
X14670000Y11910000D01*
D31*
X16220000Y12610000D02*
X15520000Y11910000D01*
D29*
X14670000Y11910000D02*
X12670000Y9910000D01*
D32*
X12670000Y9910000D02*
X10420000Y9910000D01*
X10420000Y9910000D02*
X9720000Y9210000D01*
X9720000Y9210000D02*
X9720000Y11540000D01*
X9720000Y11540000D02*
X9720000Y13510000D01*
X9720000Y13510000D02*
X9790000Y13440000D01*
X9790000Y13440000D02*
X9790000Y11820000D01*
X9790000Y11820000D02*
X9440000Y11470000D01*
X9440000Y11470000D02*
X4720000Y11470000D01*
D31*
X21180000Y12910000D02*
X23500000Y12910000D01*
D30*
X23500000Y12910000D02*
X23520000Y12890000D01*
D28*
X20360000Y14310000D02*
X20720000Y14310000D01*
X21180000Y13850000D02*
X21180000Y12910000D01*
X20720000Y14310000D02*
X21180000Y13850000D01*
D29*
X37320000Y18960000D02*
X37320000Y22960000D01*
X37320000Y22960000D02*
X35420000Y25200000D01*
X35420000Y25200000D02*
X22820000Y25200000D01*
X22820000Y25200000D02*
X22520000Y24900000D01*
X22520000Y24900000D02*
X22520000Y22410000D01*
X48020000Y15310000D02*
X48020000Y16510000D01*
D28*
X41185000Y17145000D02*
X41185000Y18810000D01*
D29*
X41520000Y16810000D02*
X41185000Y17145000D01*
X47720000Y16810000D02*
X41520000Y16810000D01*
D28*
X48020000Y16510000D02*
X47720000Y16810000D01*
X39915000Y18810000D02*
X41185000Y18810000D01*
D29*
X37320000Y18960000D02*
X39765000Y18960000D01*
D30*
X39765000Y18960000D02*
X39915000Y18810000D01*
D31*
X48720000Y5110000D02*
X46570000Y5110000D01*
X46570000Y5110000D02*
X46320000Y4860000D01*
X48720000Y5110000D02*
X48720000Y2860000D01*
D30*
X48720000Y2860000D02*
X48620000Y2760000D01*
D28*
X16220000Y12610000D02*
X16220000Y13310000D01*
X16220000Y13310000D02*
X17220000Y14310000D01*
X17220000Y14310000D02*
X20360000Y14310000D01*
D30*
X20360000Y14310000D02*
X20420000Y14310000D01*
D29*
X22520000Y22410000D02*
X13120000Y22410000D01*
X13120000Y22410000D02*
X12220000Y21510000D01*
D28*
X12220000Y21510000D02*
X12220000Y19715000D01*
D29*
X45720000Y11680000D02*
X45720000Y13260000D01*
X45300000Y11260000D02*
X45720000Y11680000D01*
D32*
X18970000Y7610000D02*
X18970000Y4660000D01*
X20620000Y7260000D02*
X23970000Y7260000D01*
X20570000Y7310000D02*
X20620000Y7260000D01*
X20570000Y5660000D02*
X20570000Y7310000D01*
X20870000Y5360000D02*
X20570000Y5660000D01*
X29720000Y5360000D02*
X20870000Y5360000D01*
X29820000Y5460000D02*
X29720000Y5360000D01*
X25820000Y5460000D02*
X29820000Y5460000D01*
X22670000Y8610000D02*
X25820000Y5460000D01*
X17270000Y8610000D02*
X22670000Y8610000D01*
X17020000Y8360000D02*
X17270000Y8610000D01*
X17020000Y5360000D02*
X17020000Y8360000D01*
X16920000Y5260000D02*
X17020000Y5360000D01*
X18320000Y5260000D02*
X16920000Y5260000D01*
X19520000Y4060000D02*
X18320000Y5260000D01*
X15570000Y4060000D02*
X19520000Y4060000D01*
X15570000Y9810000D02*
X15570000Y4060000D01*
X15720000Y9960000D02*
X15570000Y9810000D01*
X19270000Y9960000D02*
X15720000Y9960000D01*
X19320000Y10010000D02*
X19270000Y9960000D01*
X21020000Y10010000D02*
X19320000Y10010000D01*
X21070000Y10060000D02*
X21020000Y10010000D01*
X23320000Y10060000D02*
X21070000Y10060000D01*
X26020000Y7360000D02*
X23320000Y10060000D01*
X27096654Y7186654D02*
X26020000Y7360000D01*
X27195000Y7285000D02*
X27096654Y7186654D01*
X27795000Y7285000D02*
X27195000Y7285000D01*
X31093346Y3986654D02*
X27795000Y7285000D01*
X37420000Y4160000D02*
X31093346Y3986654D01*
X37120000Y3860000D02*
X37420000Y4160000D01*
X19770000Y3860000D02*
X37120000Y3860000D01*
X18970000Y4660000D02*
X19770000Y3860000D01*
D29*
X12020000Y13810000D02*
X14020000Y13810000D01*
D30*
X20120000Y7610000D02*
X18970000Y7610000D01*
X21320000Y8810000D02*
X20120000Y7610000D01*
X14020000Y13810000D02*
X14070000Y13860000D01*
D29*
X40270000Y4710000D02*
X28920000Y4710000D01*
D30*
X25520000Y11420000D02*
X25910000Y11810000D01*
D29*
X25520000Y8110000D02*
X25520000Y11420000D01*
D30*
X28920000Y4710000D02*
X25520000Y8110000D01*
D29*
X40370000Y4810000D02*
X44020000Y4810000D01*
D30*
X40270000Y4710000D02*
X40370000Y4810000D01*
D29*
X45720000Y13260000D02*
X47970000Y13260000D01*
D30*
X47970000Y13260000D02*
X48020000Y13310000D01*
D31*
X45720000Y13260000D02*
X43875000Y13260000D01*
X43875000Y13260000D02*
X43725000Y13410000D01*
D30*
X21120000Y11110000D02*
X23420000Y11110000D01*
X23420000Y11110000D02*
X23520000Y11210000D01*
D28*
X19220000Y12610000D02*
X19220000Y10110000D01*
D30*
X19220000Y10110000D02*
X18970000Y9860000D01*
D28*
X12220000Y15905000D02*
X12220000Y14010000D01*
X12220000Y14010000D02*
X12020000Y13810000D01*
D30*
X25910000Y11810000D02*
X25310000Y11210000D01*
D31*
X22920000Y11210000D02*
X25310000Y11210000D01*
D29*
X18970000Y7610000D02*
X12670000Y7610000D01*
D30*
X20420000Y11310000D02*
X22820000Y11310000D01*
X22820000Y11310000D02*
X22920000Y11210000D01*
X18970000Y7610000D02*
X18970000Y9860000D01*
X18970000Y9860000D02*
X20420000Y11310000D01*
D28*
X29720000Y11810000D02*
X29720000Y10437206D01*
D31*
X44830000Y8460000D02*
X45640000Y9270000D01*
D28*
X44280002Y7910002D02*
X44830000Y8460000D01*
X32247204Y7910002D02*
X44280002Y7910002D01*
X29720000Y10437206D02*
X32247204Y7910002D01*
D31*
X46320000Y6760000D02*
X46320000Y7280000D01*
X46320000Y7280000D02*
X45640000Y7960000D01*
X45640000Y7960000D02*
X45640000Y9270000D01*
X48720000Y7110000D02*
X46670000Y7110000D01*
D30*
X46670000Y7110000D02*
X46320000Y6760000D01*
X48620000Y7210000D02*
X48720000Y7110000D01*
D31*
X17620000Y18445000D02*
X17620000Y17175000D01*
X27180000Y11810000D02*
X27180000Y9470000D01*
D28*
X19185000Y18445000D02*
X17620000Y18445000D01*
D31*
X19920000Y17710000D02*
X19185000Y18445000D01*
D30*
X27180000Y9470000D02*
X27120000Y9410000D01*
D28*
X10585000Y18445000D02*
X12220000Y18445000D01*
X9720000Y19310000D02*
X10585000Y18445000D01*
X12220000Y17175000D02*
X9395000Y17155000D01*
D31*
X9395000Y17155000D02*
X9330000Y17090000D01*
D30*
X41820000Y6710000D02*
X44020000Y6710000D01*
D28*
X44020000Y6710000D02*
X31891568Y6710000D01*
X28450000Y10151568D02*
X28450000Y11810000D01*
X31891568Y6710000D02*
X28450000Y10151568D01*
D30*
X28420000Y11780000D02*
X28450000Y11810000D01*
D31*
X38960000Y21350000D02*
X38960000Y23600000D01*
D30*
X38960000Y23600000D02*
X39140000Y23780000D01*
D31*
X47820000Y18810000D02*
X45770000Y18810000D01*
D30*
X47880000Y18750000D02*
X47820000Y18810000D01*
D31*
X47370000Y21350000D02*
X47370000Y20410000D01*
D28*
X45770000Y18810000D02*
X43725000Y18810000D01*
D31*
X47370000Y20410000D02*
X45770000Y18810000D01*
X44680000Y23640000D02*
X46810000Y23640000D01*
X47370000Y23080000D02*
X47370000Y21350000D01*
D28*
X46810000Y23640000D02*
X47370000Y23080000D01*
D31*
X49150000Y9270000D02*
X47540000Y9270000D01*
D30*
X49180000Y9300000D02*
X49150000Y9270000D01*
D28*
X32260000Y13055784D02*
X32260000Y13394362D01*
X17620000Y15905000D02*
X19625000Y15905000D01*
X32260000Y13055784D02*
X32260000Y11810000D01*
X22469362Y15905000D02*
X19625000Y15905000D01*
X23964364Y14409998D02*
X22469362Y15905000D01*
X31244364Y14409998D02*
X23964364Y14409998D01*
X32260000Y13394362D02*
X31244364Y14409998D01*
D30*
X32260000Y11810000D02*
X32260000Y12970000D01*
D28*
X33530000Y13160000D02*
X33530000Y13680000D01*
X20215000Y19715000D02*
X17620000Y19715000D01*
X24420000Y15510000D02*
X20215000Y19715000D01*
X31700000Y15510000D02*
X24420000Y15510000D01*
X33530000Y13680000D02*
X31700000Y15510000D01*
X33530000Y11810000D02*
X33530000Y13160000D01*
X33530000Y13160000D02*
X33530000Y13200000D01*
X30990000Y11810000D02*
X30990000Y10722844D01*
X36270004Y9010004D02*
X36870000Y9610000D01*
X32702840Y9010004D02*
X36270004Y9010004D01*
X30990000Y10722844D02*
X32702840Y9010004D01*
D31*
X39915000Y13410000D02*
X37400000Y13410000D01*
X36870000Y12880000D02*
X36870000Y9610000D01*
D28*
X37400000Y13410000D02*
X36870000Y12880000D01*
D31*
X38530000Y9610000D02*
X36870000Y9610000D01*
D28*
X30990000Y17210000D02*
X30990000Y18880000D01*
D29*
X32680000Y20570000D02*
X32680000Y22410000D01*
D28*
X30990000Y18880000D02*
X32680000Y20570000D01*
D31*
X40850000Y9600000D02*
X43040000Y9600000D01*
D30*
X43040000Y9600000D02*
X43060000Y9620000D01*
D28*
X29720000Y17210000D02*
X29720000Y19610000D01*
X30140000Y20030000D02*
X30140000Y22410000D01*
X29720000Y19610000D02*
X30140000Y20030000D01*
X28450000Y17210000D02*
X28450000Y19180000D01*
X27600000Y20030000D02*
X27600000Y22410000D01*
X28450000Y19180000D02*
X27600000Y20030000D01*
D31*
X44100000Y21350000D02*
X45470000Y21350000D01*
X40850000Y11500000D02*
X38540000Y11500000D01*
D30*
X38540000Y11500000D02*
X38530000Y11510000D01*
D28*
X41185000Y13410000D02*
X41185000Y11835000D01*
D30*
X41185000Y11835000D02*
X40850000Y11500000D01*
D28*
X42455000Y13410000D02*
X42455000Y12315000D01*
X42455000Y12315000D02*
X43060000Y11710000D01*
X43060000Y11710000D02*
X43060000Y11520000D01*
D31*
X42770000Y15160000D02*
X39220000Y15160000D01*
X39220000Y15160000D02*
X37320000Y17060000D01*
X45720000Y15160000D02*
X42770000Y15160000D01*
D28*
X42455000Y14845000D02*
X42455000Y13410000D01*
X42770000Y15160000D02*
X42455000Y14845000D01*
D31*
X42200000Y21350000D02*
X40860000Y21350000D01*
D28*
X42680000Y23640000D02*
X42680000Y23250000D01*
D31*
X42680000Y23250000D02*
X42200000Y22770000D01*
X42200000Y22770000D02*
X42200000Y21350000D01*
X42200000Y21350000D02*
X42200000Y20360000D01*
D28*
X42455000Y20105000D02*
X42455000Y18810000D01*
D30*
X42200000Y20360000D02*
X42455000Y20105000D01*
D31*
G36*
X50907000Y3852000D02*
X51159000Y3600000D01*
X53770000Y3600000D01*
X53770000Y3620000D01*
X53870000Y3620000D01*
X53870000Y3600000D01*
X53890000Y3600000D01*
X53890000Y3500000D01*
X53870000Y3500000D01*
X53870000Y3480000D01*
X53770000Y3480000D01*
X53770000Y3500000D01*
X51159000Y3500000D01*
X50907000Y3248000D01*
X50907000Y3035000D01*
X49870000Y3035000D01*
X49618633Y2985000D01*
X46071196Y2985000D01*
X46091862Y2998298D01*
X46511517Y3612483D01*
X46622000Y3502000D01*
X47170503Y3502000D01*
X47540986Y3655459D01*
X47606726Y3721199D01*
X47894497Y3602000D01*
X48418000Y3602000D01*
X48670000Y3854000D01*
X48670000Y4570818D01*
X48770000Y4570818D01*
X48770000Y3854000D01*
X49022000Y3602000D01*
X49545503Y3602000D01*
X49915986Y3755459D01*
X50199541Y4039014D01*
X50353000Y4409496D01*
X50353000Y4808000D01*
X50307983Y4853017D01*
X50766862Y5148298D01*
X50907000Y5353397D01*
X50907000Y3852000D01*
X50907000Y3852000D01*
G37*
X50907000Y3852000D02*
X51159000Y3600000D01*
X53770000Y3600000D01*
X53770000Y3620000D01*
X53870000Y3620000D01*
X53870000Y3600000D01*
X53890000Y3600000D01*
X53890000Y3500000D01*
X53870000Y3500000D01*
X53870000Y3480000D01*
X53770000Y3480000D01*
X53770000Y3500000D01*
X51159000Y3500000D01*
X50907000Y3248000D01*
X50907000Y3035000D01*
X49870000Y3035000D01*
X49618633Y2985000D01*
X46071196Y2985000D01*
X46091862Y2998298D01*
X46511517Y3612483D01*
X46622000Y3502000D01*
X47170503Y3502000D01*
X47540986Y3655459D01*
X47606726Y3721199D01*
X47894497Y3602000D01*
X48418000Y3602000D01*
X48670000Y3854000D01*
X48670000Y4570818D01*
X48770000Y4570818D01*
X48770000Y3854000D01*
X49022000Y3602000D01*
X49545503Y3602000D01*
X49915986Y3755459D01*
X50199541Y4039014D01*
X50353000Y4409496D01*
X50353000Y4808000D01*
X50307983Y4853017D01*
X50766862Y5148298D01*
X50907000Y5353397D01*
X50907000Y3852000D01*
G36*
X8512000Y14452007D02*
X8512000Y14112000D01*
X8764000Y13860000D01*
X9429946Y13860000D01*
X9420000Y13810000D01*
X9429946Y13760000D01*
X8764000Y13760000D01*
X8512000Y13508000D01*
X8512000Y12984497D01*
X8665459Y12614014D01*
X8949014Y12330459D01*
X9319496Y12177000D01*
X9718000Y12177000D01*
X9763017Y12222017D01*
X10058298Y11763138D01*
X10726644Y11306477D01*
X10863280Y11278807D01*
X10815459Y11230986D01*
X10662000Y10860503D01*
X10662000Y10718000D01*
X10022000Y10718000D01*
X9770000Y10466000D01*
X9770000Y9260000D01*
X9790000Y9260000D01*
X9790000Y9160000D01*
X9770000Y9160000D01*
X9770000Y9140000D01*
X9670000Y9140000D01*
X9670000Y9160000D01*
X8164000Y9160000D01*
X7912000Y8908000D01*
X7912000Y8719753D01*
X6946774Y9686665D01*
X7151885Y9764936D01*
X7216043Y9910504D01*
X7912000Y9910504D01*
X7912000Y9512000D01*
X8164000Y9260000D01*
X9670000Y9260000D01*
X9670000Y10466000D01*
X9418000Y10718000D01*
X8719497Y10718000D01*
X8349014Y10564541D01*
X8065459Y10280986D01*
X7912000Y9910504D01*
X7216043Y9910504D01*
X7619269Y10825368D01*
X7645265Y11983940D01*
X7225916Y13064269D01*
X7151885Y13175064D01*
X6945422Y13253851D01*
X8028567Y14335107D01*
X8141065Y14606033D01*
X8512000Y14452007D01*
X8512000Y14452007D01*
G37*
X8512000Y14452007D02*
X8512000Y14112000D01*
X8764000Y13860000D01*
X9429946Y13860000D01*
X9420000Y13810000D01*
X9429946Y13760000D01*
X8764000Y13760000D01*
X8512000Y13508000D01*
X8512000Y12984497D01*
X8665459Y12614014D01*
X8949014Y12330459D01*
X9319496Y12177000D01*
X9718000Y12177000D01*
X9763017Y12222017D01*
X10058298Y11763138D01*
X10726644Y11306477D01*
X10863280Y11278807D01*
X10815459Y11230986D01*
X10662000Y10860503D01*
X10662000Y10718000D01*
X10022000Y10718000D01*
X9770000Y10466000D01*
X9770000Y9260000D01*
X9790000Y9260000D01*
X9790000Y9160000D01*
X9770000Y9160000D01*
X9770000Y9140000D01*
X9670000Y9140000D01*
X9670000Y9160000D01*
X8164000Y9160000D01*
X7912000Y8908000D01*
X7912000Y8719753D01*
X6946774Y9686665D01*
X7151885Y9764936D01*
X7216043Y9910504D01*
X7912000Y9910504D01*
X7912000Y9512000D01*
X8164000Y9260000D01*
X9670000Y9260000D01*
X9670000Y10466000D01*
X9418000Y10718000D01*
X8719497Y10718000D01*
X8349014Y10564541D01*
X8065459Y10280986D01*
X7912000Y9910504D01*
X7216043Y9910504D01*
X7619269Y10825368D01*
X7645265Y11983940D01*
X7225916Y13064269D01*
X7151885Y13175064D01*
X6945422Y13253851D01*
X8028567Y14335107D01*
X8141065Y14606033D01*
X8512000Y14452007D01*
G36*
X4804853Y11484142D02*
X4790711Y11470000D01*
X4804853Y11455858D01*
X4734142Y11385147D01*
X4720000Y11399289D01*
X4705858Y11385147D01*
X4635147Y11455858D01*
X4649289Y11470000D01*
X4635147Y11484142D01*
X4705858Y11554853D01*
X4720000Y11540711D01*
X4734142Y11554853D01*
X4804853Y11484142D01*
X4804853Y11484142D01*
G37*
X4804853Y11484142D02*
X4790711Y11470000D01*
X4804853Y11455858D01*
X4734142Y11385147D01*
X4720000Y11399289D01*
X4705858Y11385147D01*
X4635147Y11455858D01*
X4649289Y11470000D01*
X4635147Y11484142D01*
X4705858Y11554853D01*
X4720000Y11540711D01*
X4734142Y11554853D01*
X4804853Y11484142D01*
G36*
X20512000Y24110504D02*
X20512000Y22712000D01*
X20764000Y22460000D01*
X22060000Y22460000D01*
X22060000Y22360000D01*
X20764000Y22360000D01*
X20512000Y22108000D01*
X20512000Y22055923D01*
X20215000Y22115000D01*
X17620000Y22115000D01*
X17314247Y22054182D01*
X16845000Y22054182D01*
X16103844Y21914724D01*
X15423138Y21476702D01*
X14966477Y20808356D01*
X14805818Y20015000D01*
X14805818Y19624320D01*
X14456702Y20166862D01*
X13852007Y20580032D01*
X13849541Y20585986D01*
X13565986Y20869541D01*
X13195504Y21023000D01*
X12522000Y21023000D01*
X12323427Y20824427D01*
X12220000Y20845000D01*
X12096000Y20845000D01*
X11918000Y21023000D01*
X11895685Y21023000D01*
X11279784Y21639977D01*
X10269409Y22059522D01*
X9175391Y22060477D01*
X8664182Y21849249D01*
X8664182Y23535000D01*
X8541876Y24185000D01*
X20542857Y24185000D01*
X20512000Y24110504D01*
X20512000Y24110504D01*
G37*
X20512000Y24110504D02*
X20512000Y22712000D01*
X20764000Y22460000D01*
X22060000Y22460000D01*
X22060000Y22360000D01*
X20764000Y22360000D01*
X20512000Y22108000D01*
X20512000Y22055923D01*
X20215000Y22115000D01*
X17620000Y22115000D01*
X17314247Y22054182D01*
X16845000Y22054182D01*
X16103844Y21914724D01*
X15423138Y21476702D01*
X14966477Y20808356D01*
X14805818Y20015000D01*
X14805818Y19624320D01*
X14456702Y20166862D01*
X13852007Y20580032D01*
X13849541Y20585986D01*
X13565986Y20869541D01*
X13195504Y21023000D01*
X12522000Y21023000D01*
X12323427Y20824427D01*
X12220000Y20845000D01*
X12096000Y20845000D01*
X11918000Y21023000D01*
X11895685Y21023000D01*
X11279784Y21639977D01*
X10269409Y22059522D01*
X9175391Y22060477D01*
X8664182Y21849249D01*
X8664182Y23535000D01*
X8541876Y24185000D01*
X20542857Y24185000D01*
X20512000Y24110504D01*
M02*
