M48
METRIC,TZ
T1C0.700
T2C1.016
T3C1.524
%
G90
G05
T1
X9330Y17090
X9620Y3910
X9720Y19310
X9720Y11540
X14070Y13860
X19920Y17710
X21320Y8810
X27120Y9410
X39140Y23780
X40270Y4710
X41820Y6710
X45300Y11260
X47880Y18750
X48620Y2760
X49180Y9300
T2
X22520Y22410
X25060Y22410
X27600Y22410
X30140Y22410
X32680Y22410
T3
X4720Y21630
X4720Y16550
X4720Y11470
X4720Y6390
X53820Y23870
X53820Y18790
X53820Y13710
X53820Y8630
X53820Y3550
T0
M30
