G04 #@! TF.FileFunction,Copper,L1,Top,Signal*
%FSLAX46Y46*%
G04 Gerber Fmt 4.6, Leading zero omitted, Abs format (unit mm)*
G04 Created by KiCad (PCBNEW 4.0.6) date Monday, 20 June 2022 'PMt' 12:21:43*
%MOMM*%
%LPD*%
G01*
G04 APERTURE LIST*
%ADD10C,0.100000*%
%ADD11R,2.000000X3.000000*%
%ADD12O,2.000000X3.500000*%
%ADD13R,1.000000X1.600000*%
%ADD14R,1.000000X1.250000*%
%ADD15R,1.250000X1.000000*%
%ADD16R,1.550000X0.600000*%
%ADD17C,3.810000*%
%ADD18R,3.810000X3.810000*%
%ADD19R,0.700000X1.300000*%
%ADD20R,1.300000X0.700000*%
%ADD21R,3.800000X2.000000*%
%ADD22R,1.500000X2.000000*%
%ADD23R,1.500000X0.600000*%
%ADD24R,1.600000X1.000000*%
%ADD25R,0.650000X1.560000*%
%ADD26C,2.000000*%
%ADD27C,2.000000*%
%ADD28C,0.700000*%
%ADD29C,1.000000*%
%ADD30C,0.800000*%
G04 APERTURE END LIST*
D10*
D11*
X25850000Y21180000D03*
D12*
X28390000Y21180000D03*
X30930000Y21180000D03*
X33470000Y21180000D03*
X36010000Y21180000D03*
D13*
X17426000Y12752000D03*
X14426000Y12752000D03*
D14*
X17688000Y9450000D03*
X15688000Y9450000D03*
D15*
X33820000Y4410000D03*
X33820000Y6410000D03*
X35940000Y4440000D03*
X35940000Y6440000D03*
D14*
X41050000Y22260000D03*
X39050000Y22260000D03*
D16*
X20650000Y3305000D03*
X20650000Y4575000D03*
X20650000Y5845000D03*
X20650000Y7115000D03*
X15250000Y7115000D03*
X15250000Y5845000D03*
X15250000Y4575000D03*
X15250000Y3305000D03*
D17*
X4720000Y16550000D03*
X4720000Y11470000D03*
D18*
X4720000Y21630000D03*
D17*
X4720000Y6390000D03*
D19*
X44580000Y22260000D03*
X42680000Y22260000D03*
X40950000Y19970000D03*
X39050000Y19970000D03*
D20*
X26820000Y2180000D03*
X26820000Y4080000D03*
D19*
X45920000Y22260000D03*
X47820000Y22260000D03*
D21*
X15418000Y21490000D03*
D22*
X15418000Y15190000D03*
X17718000Y15190000D03*
X13118000Y15190000D03*
D23*
X33840000Y7980000D03*
X33840000Y9250000D03*
X33840000Y10520000D03*
X33840000Y11790000D03*
X33840000Y13060000D03*
X33840000Y14330000D03*
X33840000Y15600000D03*
X28440000Y15600000D03*
X28440000Y14330000D03*
X28440000Y13060000D03*
X28440000Y11790000D03*
X28440000Y10520000D03*
X28440000Y9250000D03*
X28440000Y7980000D03*
D17*
X53820000Y8630000D03*
X53820000Y13710000D03*
D18*
X53820000Y3550000D03*
D17*
X53820000Y18790000D03*
X53820000Y23870000D03*
D24*
X20930000Y18830000D03*
X20930000Y21830000D03*
D14*
X44210000Y9880000D03*
X42210000Y9880000D03*
D25*
X43340000Y5070000D03*
X44290000Y5070000D03*
X45240000Y5070000D03*
X45240000Y7770000D03*
X43340000Y7770000D03*
X43360000Y14010000D03*
X44310000Y14010000D03*
X45260000Y14010000D03*
X45260000Y16710000D03*
X43360000Y16710000D03*
D19*
X42370000Y11910000D03*
X44270000Y11910000D03*
X42350000Y2970000D03*
X44250000Y2970000D03*
D20*
X24130000Y13670000D03*
X24130000Y15570000D03*
X33450000Y23270000D03*
X33450000Y25170000D03*
X36020000Y23270000D03*
X36020000Y25170000D03*
D26*
X19990000Y11228000D03*
X12624000Y9704000D03*
X39050000Y24770000D03*
X48650000Y5070000D03*
X32190000Y17760000D03*
X42940000Y19700000D03*
X20930000Y15880000D03*
X40080000Y10020000D03*
X38710000Y5870000D03*
X36390000Y8560000D03*
X23170000Y5090000D03*
X9830000Y11482000D03*
X9830000Y4878000D03*
X29870000Y2360000D03*
X48600000Y16990000D03*
X46560000Y10900000D03*
X48580000Y24500000D03*
D27*
X19534000Y11228000D02*
X19990000Y11228000D01*
X19534000Y11228000D02*
X17718000Y13044000D01*
X17718000Y15190000D02*
X17718000Y13044000D01*
D28*
X44290000Y6420000D02*
X45639998Y6420000D01*
X45639998Y6420000D02*
X45659998Y6440000D01*
X44290000Y6420000D02*
X42620000Y6420000D01*
X42620000Y6420000D02*
X42570000Y6370000D01*
X44310000Y15360000D02*
X46600000Y15360000D01*
X46600000Y15360000D02*
X46620000Y15340000D01*
X44310000Y15360000D02*
X41980000Y15360000D01*
X41980000Y15360000D02*
X41970000Y15370000D01*
X44310000Y14010000D02*
X44310000Y15360000D01*
X44310000Y15360000D02*
X44310000Y18784000D01*
X48946000Y20118000D02*
X49962000Y21134000D01*
X45644000Y20118000D02*
X48946000Y20118000D01*
X44310000Y18784000D02*
X45644000Y20118000D01*
D29*
X13118000Y13020000D02*
X13118000Y10198000D01*
X13118000Y10198000D02*
X12624000Y9704000D01*
X15250000Y7115000D02*
X15250000Y9012000D01*
X15250000Y9012000D02*
X15688000Y9450000D01*
D27*
X14426000Y12752000D02*
X14426000Y10712000D01*
X14426000Y10712000D02*
X15688000Y9450000D01*
X13118000Y15190000D02*
X13118000Y13020000D01*
X13386000Y12752000D02*
X14426000Y12752000D01*
X13118000Y13020000D02*
X13386000Y12752000D01*
D29*
X39050000Y24770000D02*
X39050000Y22260000D01*
X44250000Y1580000D02*
X46540000Y1580000D01*
X48650000Y3690000D02*
X48650000Y5070000D01*
X46540000Y1580000D02*
X48650000Y3690000D01*
D30*
X44250000Y2970000D02*
X44250000Y1580000D01*
D29*
X38930000Y1450000D02*
X35940000Y4440000D01*
X44120000Y1450000D02*
X38930000Y1450000D01*
D30*
X44250000Y1580000D02*
X44120000Y1450000D01*
D29*
X28440000Y7980000D02*
X30380000Y7980000D01*
X31170000Y16740000D02*
X32190000Y17760000D01*
X31170000Y8770000D02*
X31170000Y16740000D01*
X30380000Y7980000D02*
X31170000Y8770000D01*
D30*
X44250000Y2970000D02*
X44250000Y2930000D01*
D29*
X39050000Y22260000D02*
X39050000Y19970000D01*
D27*
X25850000Y21180000D02*
X24800000Y21180000D01*
X24800000Y21180000D02*
X24150000Y21830000D01*
X24150000Y21830000D02*
X20930000Y21830000D01*
D29*
X33820000Y4410000D02*
X35910000Y4410000D01*
D30*
X35910000Y4410000D02*
X35940000Y4440000D01*
D29*
X33820000Y4410000D02*
X32010000Y4410000D01*
X32010000Y4410000D02*
X28440000Y7980000D01*
D28*
X44290000Y5070000D02*
X44290000Y3010000D01*
X44290000Y3010000D02*
X44250000Y2970000D01*
X44290000Y5070000D02*
X44290000Y6420000D01*
X44290000Y6420000D02*
X44290000Y9800000D01*
X44290000Y9800000D02*
X44210000Y9880000D01*
X44290000Y9800000D02*
X44210000Y9880000D01*
X44270000Y11910000D02*
X44270000Y9940000D01*
X44270000Y9940000D02*
X44210000Y9880000D01*
X44310000Y14010000D02*
X44310000Y11950000D01*
X44310000Y11950000D02*
X44270000Y11910000D01*
X43360000Y16710000D02*
X43360000Y19280000D01*
X43360000Y19280000D02*
X42940000Y19700000D01*
D29*
X16040000Y1910000D02*
X16040000Y2515000D01*
X16040000Y2515000D02*
X15250000Y3305000D01*
D27*
X20930000Y18830000D02*
X20930000Y15880000D01*
X15418000Y15190000D02*
X15418000Y21490000D01*
X15418000Y21490000D02*
X15418000Y19102000D01*
X15418000Y19102000D02*
X15690000Y18830000D01*
X15690000Y18830000D02*
X16820000Y18830000D01*
D29*
X17688000Y9450000D02*
X18030000Y9450000D01*
X18030000Y9450000D02*
X18940000Y8540000D01*
X36020000Y25170000D02*
X33450000Y25170000D01*
X40080000Y10020000D02*
X42070000Y10020000D01*
X42070000Y10020000D02*
X42210000Y9880000D01*
X42210000Y9880000D02*
X42210000Y9050000D01*
X33820000Y6410000D02*
X35910000Y6410000D01*
X35910000Y6410000D02*
X35940000Y6440000D01*
X33840000Y7980000D02*
X33840000Y6430000D01*
X33840000Y6430000D02*
X33820000Y6410000D01*
D30*
X38710000Y5870000D02*
X38290000Y5870000D01*
D29*
X37720000Y6440000D02*
X35940000Y6440000D01*
X38290000Y5870000D02*
X37720000Y6440000D01*
D30*
X40080000Y10020000D02*
X40220000Y9880000D01*
X38670000Y5830000D02*
X38710000Y5870000D01*
D29*
X16040000Y1910000D02*
X26550000Y1910000D01*
D30*
X15620000Y2330000D02*
X16040000Y1910000D01*
X26550000Y1910000D02*
X26820000Y2180000D01*
D29*
X15250000Y3305000D02*
X17215000Y3305000D01*
X17215000Y3305000D02*
X18140000Y4230000D01*
X18140000Y4230000D02*
X18140000Y7740000D01*
X18140000Y7740000D02*
X18940000Y8540000D01*
D30*
X20930000Y13590000D02*
X20930000Y18830000D01*
D29*
X22820000Y11700000D02*
X20930000Y13590000D01*
X22820000Y9370000D02*
X22820000Y11700000D01*
X21990000Y8540000D02*
X22820000Y9370000D01*
X18940000Y8540000D02*
X21990000Y8540000D01*
D27*
X20930000Y18830000D02*
X16820000Y18830000D01*
D29*
X27440000Y18830000D02*
X20930000Y18830000D01*
X27440000Y18830000D02*
X28390000Y19780000D01*
X28390000Y21180000D02*
X28390000Y19780000D01*
D30*
X33450000Y25170000D02*
X33290000Y25010000D01*
D29*
X33290000Y25010000D02*
X30070000Y25010000D01*
X30070000Y25010000D02*
X28390000Y23330000D01*
X28390000Y23330000D02*
X28390000Y21180000D01*
D30*
X35910000Y6410000D02*
X35940000Y6440000D01*
X33820000Y7960000D02*
X33840000Y7980000D01*
D28*
X43340000Y7770000D02*
X43340000Y7920000D01*
X43340000Y7920000D02*
X42210000Y9050000D01*
D29*
X41050000Y22260000D02*
X42680000Y22260000D01*
X33840000Y13060000D02*
X36740000Y13060000D01*
X36740000Y13060000D02*
X40950000Y17270000D01*
X40950000Y17270000D02*
X40950000Y19970000D01*
X40950000Y19970000D02*
X40950000Y22160000D01*
D30*
X40950000Y22160000D02*
X41050000Y22260000D01*
D29*
X23170000Y5090000D02*
X20680000Y5090000D01*
X20680000Y5090000D02*
X20650000Y5060000D01*
X33840000Y9250000D02*
X35680002Y9250000D01*
X35700000Y9269998D02*
X35700000Y9250000D01*
X35680002Y9250000D02*
X35700000Y9269998D01*
D30*
X35700000Y9250000D02*
X35700000Y9250000D01*
X35700000Y9250000D02*
X36390000Y8560000D01*
X23170000Y5090000D02*
X23140000Y5060000D01*
X20650000Y5845000D02*
X20650000Y5060000D01*
X20650000Y5060000D02*
X20650000Y4575000D01*
D29*
X11911000Y5845000D02*
X15250000Y5845000D01*
X10084000Y7672000D02*
X11911000Y5845000D01*
X10084000Y11228000D02*
X10084000Y7672000D01*
X9830000Y11482000D02*
X10084000Y11228000D01*
X15250000Y4575000D02*
X10133000Y4575000D01*
X10133000Y4575000D02*
X9830000Y4878000D01*
X28150000Y4080000D02*
X29870000Y2360000D01*
X26820000Y4080000D02*
X26820000Y8840000D01*
X27230000Y9250000D02*
X28440000Y9250000D01*
X26820000Y8840000D02*
X27230000Y9250000D01*
X26820000Y4080000D02*
X28150000Y4080000D01*
D28*
X45260000Y16710000D02*
X45260000Y17920000D01*
D29*
X46980000Y18610000D02*
X45950000Y18610000D01*
X46980000Y18610000D02*
X48600000Y16990000D01*
D28*
X45260000Y17920000D02*
X45950000Y18610000D01*
D29*
X46160000Y4010000D02*
X46410000Y4010000D01*
X46710000Y7240000D02*
X48600000Y9130000D01*
X46710000Y4310000D02*
X46710000Y7240000D01*
X46410000Y4010000D02*
X46710000Y4310000D01*
D28*
X45240000Y5070000D02*
X45240000Y4930000D01*
X45240000Y4930000D02*
X46160000Y4010000D01*
X46160000Y4010000D02*
X46180000Y4010000D01*
D29*
X48600000Y8940000D02*
X48600000Y9130000D01*
X48600000Y9130000D02*
X48600000Y16990000D01*
X46220000Y12910000D02*
X46220000Y11240000D01*
D28*
X45260000Y13870000D02*
X46220000Y12910000D01*
D29*
X46220000Y11240000D02*
X46560000Y10900000D01*
D28*
X45260000Y14010000D02*
X45260000Y13870000D01*
X45240000Y7770000D02*
X45240000Y8210000D01*
X45240000Y8210000D02*
X46560000Y9530000D01*
D29*
X46560000Y9530000D02*
X46560000Y10900000D01*
D28*
X46560000Y10900000D02*
X46560000Y11210000D01*
D29*
X47820000Y22260000D02*
X47820000Y23740000D01*
X47820000Y23740000D02*
X48580000Y24500000D01*
X28440000Y10520000D02*
X26732230Y10520000D01*
X24625000Y3305000D02*
X20650000Y3305000D01*
X24920000Y3600000D02*
X24625000Y3305000D01*
X24920000Y4630000D02*
X24920000Y3600000D01*
X25569998Y5279998D02*
X24920000Y4630000D01*
X25569998Y9357768D02*
X25569998Y5279998D01*
X26732230Y10520000D02*
X25569998Y9357768D01*
X28440000Y11790000D02*
X26234460Y11790000D01*
X23685000Y7115000D02*
X20650000Y7115000D01*
X24319996Y7749996D02*
X23685000Y7115000D01*
X24319996Y9875536D02*
X24319996Y7749996D01*
X26234460Y11790000D02*
X24319996Y9875536D01*
X42370000Y11910000D02*
X42370000Y13440000D01*
D28*
X42940000Y14010000D02*
X42370000Y13440000D01*
X42940000Y14010000D02*
X43360000Y14010000D01*
D29*
X33840000Y11790000D02*
X42250000Y11790000D01*
X42250000Y11790000D02*
X42370000Y11910000D01*
D30*
X42250000Y11790000D02*
X42370000Y11910000D01*
D29*
X24130000Y15570000D02*
X24130000Y16130000D01*
X30930000Y19380000D02*
X30930000Y21180000D01*
X29080000Y17530000D02*
X30930000Y19380000D01*
X25530000Y17530000D02*
X29080000Y17530000D01*
X24130000Y16130000D02*
X25530000Y17530000D01*
X33840000Y14330000D02*
X35500000Y14330000D01*
X35500000Y14330000D02*
X36110000Y14940000D01*
X36110000Y14330000D02*
X36110000Y14940000D01*
X36110000Y14940000D02*
X36110000Y21080000D01*
D30*
X36110000Y21080000D02*
X36010000Y21180000D01*
X36110000Y21080000D02*
X36020000Y21170000D01*
D29*
X36020000Y21170000D02*
X36020000Y23270000D01*
X34859998Y15910000D02*
X34859998Y18330000D01*
X33759998Y19430000D02*
X33759998Y20890002D01*
X34859998Y18330000D02*
X33759998Y19430000D01*
X33759998Y20890002D02*
X33470000Y21180000D01*
X33840000Y15600000D02*
X34549998Y15600000D01*
X34549998Y15600000D02*
X34859998Y15910000D01*
X34859998Y15910000D02*
X34830000Y15910000D01*
D30*
X34830000Y15910000D02*
X34830000Y15910000D01*
X34520000Y15600000D02*
X34830000Y15910000D01*
X33525000Y21125000D02*
X33470000Y21180000D01*
D29*
X33470000Y21180000D02*
X33470000Y23250000D01*
D30*
X33470000Y23250000D02*
X33450000Y23270000D01*
D29*
X41550000Y5920000D02*
X41550000Y5140000D01*
X41550000Y5140000D02*
X42350000Y4340000D01*
X42350000Y4340000D02*
X42350000Y2970000D01*
D28*
X43080000Y5070000D02*
X42350000Y4340000D01*
D29*
X37040002Y10520000D02*
X37040002Y10429998D01*
X37040002Y10429998D02*
X41550000Y5920000D01*
X41550000Y5920000D02*
X41590000Y5880000D01*
X33840000Y10520000D02*
X37040002Y10520000D01*
X37040002Y10520000D02*
X37050002Y10510000D01*
X37050002Y10510000D02*
X37120000Y10510000D01*
X37040002Y10520000D02*
X37050002Y10510000D01*
D30*
X37120000Y10510000D02*
X37110000Y10520000D01*
X43080000Y5070000D02*
X43340000Y5070000D01*
D28*
X43340000Y5070000D02*
X43080000Y5070000D01*
D29*
X28440000Y13060000D02*
X24740000Y13060000D01*
X24740000Y13060000D02*
X24130000Y13670000D01*
X44580000Y22260000D02*
X45920000Y22260000D01*
G36*
X29100000Y22775821D02*
X29082241Y22749243D01*
X28930000Y21983876D01*
X28930000Y20376124D01*
X29075139Y19646459D01*
X28458680Y19030000D01*
X27616174Y19030000D01*
X27789262Y19283322D01*
X27869591Y19680000D01*
X27869591Y22680000D01*
X27799862Y23050578D01*
X27580851Y23390931D01*
X27246678Y23619262D01*
X26850000Y23699591D01*
X24850000Y23699591D01*
X24827189Y23695299D01*
X24150000Y23830001D01*
X24149995Y23830000D01*
X20930000Y23830000D01*
X20164633Y23677759D01*
X19515786Y23244214D01*
X19082241Y22595367D01*
X18930000Y21830000D01*
X19082241Y21064633D01*
X19515786Y20415786D01*
X20164633Y19982241D01*
X20930000Y19830000D01*
X23321573Y19830000D01*
X23385784Y19765789D01*
X23385786Y19765786D01*
X23875886Y19438312D01*
X23900138Y19309422D01*
X24119149Y18969069D01*
X24453322Y18740738D01*
X24637983Y18703343D01*
X24469340Y18590660D01*
X23069340Y17190660D01*
X22744181Y16704025D01*
X22719040Y16577631D01*
X22540738Y16316678D01*
X22460409Y15920000D01*
X22460409Y15220000D01*
X22530138Y14849422D01*
X22678686Y14618571D01*
X22540738Y14416678D01*
X22460409Y14020000D01*
X22460409Y13320000D01*
X22530138Y12949422D01*
X22749149Y12609069D01*
X23083322Y12380738D01*
X23352439Y12326241D01*
X23558680Y12120000D01*
X21785436Y12120000D01*
X21686506Y12359429D01*
X21124388Y12922529D01*
X20389570Y13227652D01*
X20362752Y13227675D01*
X19718000Y13872428D01*
X19718000Y15190000D01*
X19565759Y15955367D01*
X19487591Y16072354D01*
X19487591Y16190000D01*
X19417862Y16560578D01*
X19198851Y16900931D01*
X18864678Y17129262D01*
X18468000Y17209591D01*
X16968000Y17209591D01*
X16597422Y17139862D01*
X16257069Y16920851D01*
X16028738Y16586678D01*
X15948409Y16190000D01*
X15948409Y16072354D01*
X15870241Y15955367D01*
X15718000Y15190000D01*
X15718000Y14247875D01*
X15191367Y14599759D01*
X15118000Y14614353D01*
X15118000Y15190000D01*
X14965759Y15955367D01*
X14887591Y16072354D01*
X14887591Y16190000D01*
X14817862Y16560578D01*
X14598851Y16900931D01*
X14264678Y17129262D01*
X13868000Y17209591D01*
X12368000Y17209591D01*
X11997422Y17139862D01*
X11657069Y16920851D01*
X11428738Y16586678D01*
X11348409Y16190000D01*
X11348409Y16072354D01*
X11270241Y15955367D01*
X11118000Y15190000D01*
X11118000Y13022649D01*
X10964388Y13176529D01*
X10229570Y13481652D01*
X9433921Y13482346D01*
X8698571Y13178506D01*
X8135471Y12616388D01*
X7929353Y12120000D01*
X7890000Y12120000D01*
X7890000Y25185000D01*
X29100000Y25185000D01*
X29100000Y22775821D01*
X29100000Y22775821D01*
G37*
X29100000Y22775821D02*
X29082241Y22749243D01*
X28930000Y21983876D01*
X28930000Y20376124D01*
X29075139Y19646459D01*
X28458680Y19030000D01*
X27616174Y19030000D01*
X27789262Y19283322D01*
X27869591Y19680000D01*
X27869591Y22680000D01*
X27799862Y23050578D01*
X27580851Y23390931D01*
X27246678Y23619262D01*
X26850000Y23699591D01*
X24850000Y23699591D01*
X24827189Y23695299D01*
X24150000Y23830001D01*
X24149995Y23830000D01*
X20930000Y23830000D01*
X20164633Y23677759D01*
X19515786Y23244214D01*
X19082241Y22595367D01*
X18930000Y21830000D01*
X19082241Y21064633D01*
X19515786Y20415786D01*
X20164633Y19982241D01*
X20930000Y19830000D01*
X23321573Y19830000D01*
X23385784Y19765789D01*
X23385786Y19765786D01*
X23875886Y19438312D01*
X23900138Y19309422D01*
X24119149Y18969069D01*
X24453322Y18740738D01*
X24637983Y18703343D01*
X24469340Y18590660D01*
X23069340Y17190660D01*
X22744181Y16704025D01*
X22719040Y16577631D01*
X22540738Y16316678D01*
X22460409Y15920000D01*
X22460409Y15220000D01*
X22530138Y14849422D01*
X22678686Y14618571D01*
X22540738Y14416678D01*
X22460409Y14020000D01*
X22460409Y13320000D01*
X22530138Y12949422D01*
X22749149Y12609069D01*
X23083322Y12380738D01*
X23352439Y12326241D01*
X23558680Y12120000D01*
X21785436Y12120000D01*
X21686506Y12359429D01*
X21124388Y12922529D01*
X20389570Y13227652D01*
X20362752Y13227675D01*
X19718000Y13872428D01*
X19718000Y15190000D01*
X19565759Y15955367D01*
X19487591Y16072354D01*
X19487591Y16190000D01*
X19417862Y16560578D01*
X19198851Y16900931D01*
X18864678Y17129262D01*
X18468000Y17209591D01*
X16968000Y17209591D01*
X16597422Y17139862D01*
X16257069Y16920851D01*
X16028738Y16586678D01*
X15948409Y16190000D01*
X15948409Y16072354D01*
X15870241Y15955367D01*
X15718000Y15190000D01*
X15718000Y14247875D01*
X15191367Y14599759D01*
X15118000Y14614353D01*
X15118000Y15190000D01*
X14965759Y15955367D01*
X14887591Y16072354D01*
X14887591Y16190000D01*
X14817862Y16560578D01*
X14598851Y16900931D01*
X14264678Y17129262D01*
X13868000Y17209591D01*
X12368000Y17209591D01*
X11997422Y17139862D01*
X11657069Y16920851D01*
X11428738Y16586678D01*
X11348409Y16190000D01*
X11348409Y16072354D01*
X11270241Y15955367D01*
X11118000Y15190000D01*
X11118000Y13022649D01*
X10964388Y13176529D01*
X10229570Y13481652D01*
X9433921Y13482346D01*
X8698571Y13178506D01*
X8135471Y12616388D01*
X7929353Y12120000D01*
X7890000Y12120000D01*
X7890000Y25185000D01*
X29100000Y25185000D01*
X29100000Y22775821D01*
G36*
X50915506Y24450375D02*
X50914497Y23294695D01*
X51355825Y22226600D01*
X52172301Y21408697D01*
X52360970Y21330355D01*
X52176600Y21254175D01*
X51358697Y20437699D01*
X50915506Y19370375D01*
X50914497Y18214695D01*
X51355825Y17146600D01*
X52172301Y16328697D01*
X52360970Y16250355D01*
X52176600Y16174175D01*
X51358697Y15357699D01*
X50915506Y14290375D01*
X50914497Y13134695D01*
X51355825Y12066600D01*
X52172301Y11248697D01*
X53239625Y10805506D01*
X54395305Y10804497D01*
X55463400Y11245825D01*
X56281303Y12062301D01*
X56495000Y12576941D01*
X56495000Y6105092D01*
X56455851Y6165931D01*
X56121678Y6394262D01*
X55725000Y6474591D01*
X51915000Y6474591D01*
X51544422Y6404862D01*
X51204069Y6185851D01*
X50975738Y5851678D01*
X50895409Y5455000D01*
X50895409Y2035000D01*
X49870000Y2035000D01*
X49618634Y1985000D01*
X43651752Y1985000D01*
X43719591Y2320000D01*
X43719591Y2371688D01*
X43735819Y2395975D01*
X43850000Y2970000D01*
X43850000Y3305219D01*
X44035578Y3340138D01*
X44292178Y3505256D01*
X44518322Y3350738D01*
X44880084Y3277480D01*
X45099340Y2949340D01*
X45585975Y2624181D01*
X46160000Y2510000D01*
X46410000Y2510000D01*
X46984025Y2624181D01*
X47470660Y2949340D01*
X47770660Y3249340D01*
X48095819Y3735975D01*
X48210000Y4310000D01*
X48210000Y6618680D01*
X49138418Y7547098D01*
X49174025Y7554181D01*
X49660660Y7879340D01*
X49985819Y8365975D01*
X50100000Y8940000D01*
X50100000Y15661422D01*
X50294529Y15855612D01*
X50599652Y16590430D01*
X50600346Y17386079D01*
X50296506Y18121429D01*
X49734388Y18684529D01*
X48999570Y18989652D01*
X48721425Y18989895D01*
X48040660Y19670660D01*
X47554025Y19995819D01*
X46980000Y20110000D01*
X45950000Y20110000D01*
X45375975Y19995819D01*
X44940004Y19704513D01*
X44940346Y20096079D01*
X44736093Y20590409D01*
X44930000Y20590409D01*
X45261747Y20652832D01*
X45570000Y20590409D01*
X46270000Y20590409D01*
X46640578Y20660138D01*
X46871429Y20808686D01*
X47073322Y20670738D01*
X47470000Y20590409D01*
X48170000Y20590409D01*
X48540578Y20660138D01*
X48880931Y20879149D01*
X49109262Y21213322D01*
X49189591Y21610000D01*
X49189591Y21661688D01*
X49205819Y21685975D01*
X49320000Y22260000D01*
X49320000Y22641759D01*
X49711429Y22803494D01*
X50274529Y23365612D01*
X50579652Y24100430D01*
X50580346Y24896079D01*
X50460966Y25185000D01*
X51220549Y25185000D01*
X50915506Y24450375D01*
X50915506Y24450375D01*
G37*
X50915506Y24450375D02*
X50914497Y23294695D01*
X51355825Y22226600D01*
X52172301Y21408697D01*
X52360970Y21330355D01*
X52176600Y21254175D01*
X51358697Y20437699D01*
X50915506Y19370375D01*
X50914497Y18214695D01*
X51355825Y17146600D01*
X52172301Y16328697D01*
X52360970Y16250355D01*
X52176600Y16174175D01*
X51358697Y15357699D01*
X50915506Y14290375D01*
X50914497Y13134695D01*
X51355825Y12066600D01*
X52172301Y11248697D01*
X53239625Y10805506D01*
X54395305Y10804497D01*
X55463400Y11245825D01*
X56281303Y12062301D01*
X56495000Y12576941D01*
X56495000Y6105092D01*
X56455851Y6165931D01*
X56121678Y6394262D01*
X55725000Y6474591D01*
X51915000Y6474591D01*
X51544422Y6404862D01*
X51204069Y6185851D01*
X50975738Y5851678D01*
X50895409Y5455000D01*
X50895409Y2035000D01*
X49870000Y2035000D01*
X49618634Y1985000D01*
X43651752Y1985000D01*
X43719591Y2320000D01*
X43719591Y2371688D01*
X43735819Y2395975D01*
X43850000Y2970000D01*
X43850000Y3305219D01*
X44035578Y3340138D01*
X44292178Y3505256D01*
X44518322Y3350738D01*
X44880084Y3277480D01*
X45099340Y2949340D01*
X45585975Y2624181D01*
X46160000Y2510000D01*
X46410000Y2510000D01*
X46984025Y2624181D01*
X47470660Y2949340D01*
X47770660Y3249340D01*
X48095819Y3735975D01*
X48210000Y4310000D01*
X48210000Y6618680D01*
X49138418Y7547098D01*
X49174025Y7554181D01*
X49660660Y7879340D01*
X49985819Y8365975D01*
X50100000Y8940000D01*
X50100000Y15661422D01*
X50294529Y15855612D01*
X50599652Y16590430D01*
X50600346Y17386079D01*
X50296506Y18121429D01*
X49734388Y18684529D01*
X48999570Y18989652D01*
X48721425Y18989895D01*
X48040660Y19670660D01*
X47554025Y19995819D01*
X46980000Y20110000D01*
X45950000Y20110000D01*
X45375975Y19995819D01*
X44940004Y19704513D01*
X44940346Y20096079D01*
X44736093Y20590409D01*
X44930000Y20590409D01*
X45261747Y20652832D01*
X45570000Y20590409D01*
X46270000Y20590409D01*
X46640578Y20660138D01*
X46871429Y20808686D01*
X47073322Y20670738D01*
X47470000Y20590409D01*
X48170000Y20590409D01*
X48540578Y20660138D01*
X48880931Y20879149D01*
X49109262Y21213322D01*
X49189591Y21610000D01*
X49189591Y21661688D01*
X49205819Y21685975D01*
X49320000Y22260000D01*
X49320000Y22641759D01*
X49711429Y22803494D01*
X50274529Y23365612D01*
X50579652Y24100430D01*
X50580346Y24896079D01*
X50460966Y25185000D01*
X51220549Y25185000D01*
X50915506Y24450375D01*
G36*
X32503107Y18663020D02*
X32699338Y18369340D01*
X33359998Y17708680D01*
X33359998Y17004521D01*
X33265975Y16985819D01*
X33166858Y16919591D01*
X33090000Y16919591D01*
X32719422Y16849862D01*
X32379069Y16630851D01*
X32150738Y16296678D01*
X32070409Y15900000D01*
X32070409Y15300000D01*
X32135758Y14952702D01*
X32070409Y14630000D01*
X32070409Y14030000D01*
X32135758Y13682702D01*
X32070409Y13360000D01*
X32070409Y12760000D01*
X32135758Y12412702D01*
X32070409Y12090000D01*
X32070409Y11490000D01*
X32135758Y11142702D01*
X32070409Y10820000D01*
X32070409Y10220000D01*
X32135758Y9872702D01*
X32070409Y9550000D01*
X32070409Y8950000D01*
X32135758Y8602702D01*
X32070409Y8280000D01*
X32070409Y7680000D01*
X32140138Y7309422D01*
X32228489Y7172120D01*
X32175409Y6910000D01*
X32175409Y5910000D01*
X32245138Y5539422D01*
X32464149Y5199069D01*
X32798322Y4970738D01*
X33195000Y4890409D01*
X34445000Y4890409D01*
X34549117Y4910000D01*
X35910000Y4910000D01*
X35962329Y4920409D01*
X36565000Y4920409D01*
X36669117Y4940000D01*
X36930265Y4940000D01*
X37013494Y4738571D01*
X37575612Y4175471D01*
X38310430Y3870348D01*
X39106079Y3869654D01*
X39841429Y4173494D01*
X40192356Y4523809D01*
X40489340Y4079340D01*
X40850000Y3718680D01*
X40850000Y2970000D01*
X40964181Y2395975D01*
X40980409Y2371688D01*
X40980409Y2320000D01*
X41043444Y1985000D01*
X31869673Y1985000D01*
X31870346Y2756079D01*
X31566506Y3491429D01*
X31004388Y4054529D01*
X30269570Y4359652D01*
X29991425Y4359895D01*
X29210660Y5140660D01*
X28724025Y5465819D01*
X28320000Y5546185D01*
X28320000Y7750000D01*
X28440000Y7750000D01*
X29014025Y7864181D01*
X29113142Y7930409D01*
X29190000Y7930409D01*
X29560578Y8000138D01*
X29900931Y8219149D01*
X30129262Y8553322D01*
X30209591Y8950000D01*
X30209591Y9550000D01*
X30144242Y9897298D01*
X30209591Y10220000D01*
X30209591Y10248149D01*
X30971216Y10250001D01*
X31165648Y10289867D01*
X31329251Y10402237D01*
X31436246Y10569405D01*
X31469987Y10753647D01*
X31418970Y17747650D01*
X31990660Y18319340D01*
X32307590Y18793660D01*
X32503107Y18663020D01*
X32503107Y18663020D01*
G37*
X32503107Y18663020D02*
X32699338Y18369340D01*
X33359998Y17708680D01*
X33359998Y17004521D01*
X33265975Y16985819D01*
X33166858Y16919591D01*
X33090000Y16919591D01*
X32719422Y16849862D01*
X32379069Y16630851D01*
X32150738Y16296678D01*
X32070409Y15900000D01*
X32070409Y15300000D01*
X32135758Y14952702D01*
X32070409Y14630000D01*
X32070409Y14030000D01*
X32135758Y13682702D01*
X32070409Y13360000D01*
X32070409Y12760000D01*
X32135758Y12412702D01*
X32070409Y12090000D01*
X32070409Y11490000D01*
X32135758Y11142702D01*
X32070409Y10820000D01*
X32070409Y10220000D01*
X32135758Y9872702D01*
X32070409Y9550000D01*
X32070409Y8950000D01*
X32135758Y8602702D01*
X32070409Y8280000D01*
X32070409Y7680000D01*
X32140138Y7309422D01*
X32228489Y7172120D01*
X32175409Y6910000D01*
X32175409Y5910000D01*
X32245138Y5539422D01*
X32464149Y5199069D01*
X32798322Y4970738D01*
X33195000Y4890409D01*
X34445000Y4890409D01*
X34549117Y4910000D01*
X35910000Y4910000D01*
X35962329Y4920409D01*
X36565000Y4920409D01*
X36669117Y4940000D01*
X36930265Y4940000D01*
X37013494Y4738571D01*
X37575612Y4175471D01*
X38310430Y3870348D01*
X39106079Y3869654D01*
X39841429Y4173494D01*
X40192356Y4523809D01*
X40489340Y4079340D01*
X40850000Y3718680D01*
X40850000Y2970000D01*
X40964181Y2395975D01*
X40980409Y2371688D01*
X40980409Y2320000D01*
X41043444Y1985000D01*
X31869673Y1985000D01*
X31870346Y2756079D01*
X31566506Y3491429D01*
X31004388Y4054529D01*
X30269570Y4359652D01*
X29991425Y4359895D01*
X29210660Y5140660D01*
X28724025Y5465819D01*
X28320000Y5546185D01*
X28320000Y7750000D01*
X28440000Y7750000D01*
X29014025Y7864181D01*
X29113142Y7930409D01*
X29190000Y7930409D01*
X29560578Y8000138D01*
X29900931Y8219149D01*
X30129262Y8553322D01*
X30209591Y8950000D01*
X30209591Y9550000D01*
X30144242Y9897298D01*
X30209591Y10220000D01*
X30209591Y10248149D01*
X30971216Y10250001D01*
X31165648Y10289867D01*
X31329251Y10402237D01*
X31436246Y10569405D01*
X31469987Y10753647D01*
X31418970Y17747650D01*
X31990660Y18319340D01*
X32307590Y18793660D01*
X32503107Y18663020D01*
G36*
X16168409Y10075000D02*
X16168409Y8825000D01*
X16238138Y8454422D01*
X16457149Y8114069D01*
X16683626Y7959323D01*
X16640000Y7740000D01*
X16640000Y6935089D01*
X16421678Y7084262D01*
X16025000Y7164591D01*
X15923142Y7164591D01*
X15824025Y7230819D01*
X15250000Y7345000D01*
X12532320Y7345000D01*
X11584000Y8293320D01*
X11584000Y10202849D01*
X16196571Y10214068D01*
X16168409Y10075000D01*
X16168409Y10075000D01*
G37*
X16168409Y10075000D02*
X16168409Y8825000D01*
X16238138Y8454422D01*
X16457149Y8114069D01*
X16683626Y7959323D01*
X16640000Y7740000D01*
X16640000Y6935089D01*
X16421678Y7084262D01*
X16025000Y7164591D01*
X15923142Y7164591D01*
X15824025Y7230819D01*
X15250000Y7345000D01*
X12532320Y7345000D01*
X11584000Y8293320D01*
X11584000Y10202849D01*
X16196571Y10214068D01*
X16168409Y10075000D01*
G36*
X44538322Y12290738D02*
X44720000Y12253947D01*
X44720000Y11684055D01*
X44560348Y11299570D01*
X44559654Y10503921D01*
X44863494Y9768571D01*
X44876427Y9755615D01*
X44638347Y9517535D01*
X44544422Y9499862D01*
X44287822Y9334744D01*
X44061678Y9489262D01*
X43729591Y9556511D01*
X43729591Y10505000D01*
X43660768Y10870761D01*
X43739591Y11260000D01*
X43739591Y11311688D01*
X43755819Y11335975D01*
X43870000Y11910000D01*
X43870000Y12245219D01*
X44055578Y12280138D01*
X44312178Y12445256D01*
X44538322Y12290738D01*
X44538322Y12290738D01*
G37*
X44538322Y12290738D02*
X44720000Y12253947D01*
X44720000Y11684055D01*
X44560348Y11299570D01*
X44559654Y10503921D01*
X44863494Y9768571D01*
X44876427Y9755615D01*
X44638347Y9517535D01*
X44544422Y9499862D01*
X44287822Y9334744D01*
X44061678Y9489262D01*
X43729591Y9556511D01*
X43729591Y10505000D01*
X43660768Y10870761D01*
X43739591Y11260000D01*
X43739591Y11311688D01*
X43755819Y11335975D01*
X43870000Y11910000D01*
X43870000Y12245219D01*
X44055578Y12280138D01*
X44312178Y12445256D01*
X44538322Y12290738D01*
G36*
X42015409Y15930000D02*
X42085138Y15559422D01*
X42213803Y15359471D01*
X42095738Y15186678D01*
X42060993Y15015099D01*
X41985406Y14964594D01*
X41859209Y14838397D01*
X41795975Y14825819D01*
X41309340Y14500660D01*
X40984181Y14014025D01*
X40870000Y13440000D01*
X40870000Y13290000D01*
X39091320Y13290000D01*
X42010660Y16209340D01*
X42015409Y16216447D01*
X42015409Y15930000D01*
X42015409Y15930000D01*
G37*
X42015409Y15930000D02*
X42085138Y15559422D01*
X42213803Y15359471D01*
X42095738Y15186678D01*
X42060993Y15015099D01*
X41985406Y14964594D01*
X41859209Y14838397D01*
X41795975Y14825819D01*
X41309340Y14500660D01*
X40984181Y14014025D01*
X40870000Y13440000D01*
X40870000Y13290000D01*
X39091320Y13290000D01*
X42010660Y16209340D01*
X42015409Y16216447D01*
X42015409Y15930000D01*
G36*
X46903494Y15858571D02*
X47100000Y15661722D01*
X47100000Y14091373D01*
X46794025Y14295819D01*
X46730791Y14308397D01*
X46604591Y14434597D01*
X46604591Y14790000D01*
X46534862Y15160578D01*
X46406197Y15360529D01*
X46524262Y15533322D01*
X46604591Y15930000D01*
X46604591Y16581973D01*
X46903494Y15858571D01*
X46903494Y15858571D01*
G37*
X46903494Y15858571D02*
X47100000Y15661722D01*
X47100000Y14091373D01*
X46794025Y14295819D01*
X46730791Y14308397D01*
X46604591Y14434597D01*
X46604591Y14790000D01*
X46534862Y15160578D01*
X46406197Y15360529D01*
X46524262Y15533322D01*
X46604591Y15930000D01*
X46604591Y16581973D01*
X46903494Y15858571D01*
G36*
X46580348Y24899570D02*
X46580028Y24532300D01*
X46434181Y24314025D01*
X46354316Y23912517D01*
X46270000Y23929591D01*
X45570000Y23929591D01*
X45238253Y23867168D01*
X44930000Y23929591D01*
X44230000Y23929591D01*
X43859422Y23859862D01*
X43628571Y23711314D01*
X43426678Y23849262D01*
X43030000Y23929591D01*
X42330000Y23929591D01*
X41959422Y23859862D01*
X41914290Y23830821D01*
X41550000Y23904591D01*
X40550000Y23904591D01*
X40179422Y23834862D01*
X39839069Y23615851D01*
X39610738Y23281678D01*
X39530409Y22885000D01*
X39530409Y22564242D01*
X39450000Y22160000D01*
X39450000Y17891320D01*
X37610000Y16051320D01*
X37610000Y19239959D01*
X37857759Y19610757D01*
X38010000Y20376124D01*
X38010000Y21983876D01*
X37857759Y22749243D01*
X37689591Y23000925D01*
X37689591Y23620000D01*
X37619862Y23990578D01*
X37471314Y24221429D01*
X37609262Y24423322D01*
X37689591Y24820000D01*
X37689591Y25185000D01*
X46698869Y25185000D01*
X46580348Y24899570D01*
X46580348Y24899570D01*
G37*
X46580348Y24899570D02*
X46580028Y24532300D01*
X46434181Y24314025D01*
X46354316Y23912517D01*
X46270000Y23929591D01*
X45570000Y23929591D01*
X45238253Y23867168D01*
X44930000Y23929591D01*
X44230000Y23929591D01*
X43859422Y23859862D01*
X43628571Y23711314D01*
X43426678Y23849262D01*
X43030000Y23929591D01*
X42330000Y23929591D01*
X41959422Y23859862D01*
X41914290Y23830821D01*
X41550000Y23904591D01*
X40550000Y23904591D01*
X40179422Y23834862D01*
X39839069Y23615851D01*
X39610738Y23281678D01*
X39530409Y22885000D01*
X39530409Y22564242D01*
X39450000Y22160000D01*
X39450000Y17891320D01*
X37610000Y16051320D01*
X37610000Y19239959D01*
X37857759Y19610757D01*
X38010000Y20376124D01*
X38010000Y21983876D01*
X37857759Y22749243D01*
X37689591Y23000925D01*
X37689591Y23620000D01*
X37619862Y23990578D01*
X37471314Y24221429D01*
X37609262Y24423322D01*
X37689591Y24820000D01*
X37689591Y25185000D01*
X46698869Y25185000D01*
X46580348Y24899570D01*
G36*
X5737378Y19273035D02*
X5300375Y19454494D01*
X4144695Y19455503D01*
X3076600Y19014175D01*
X2258697Y18197699D01*
X1945000Y17442232D01*
X1945000Y25185000D01*
X5694253Y25185000D01*
X5737378Y19273035D01*
X5737378Y19273035D01*
G37*
X5737378Y19273035D02*
X5300375Y19454494D01*
X4144695Y19455503D01*
X3076600Y19014175D01*
X2258697Y18197699D01*
X1945000Y17442232D01*
X1945000Y25185000D01*
X5694253Y25185000D01*
X5737378Y19273035D01*
M02*
